<svg width="17" height="19" viewBox="0 0 17 19" fill="none" xmlns="http://www.w3.org/2000/svg">
<path d="M1.35156 4.70703H2.91989H15.4665" stroke="#FB6D3A" stroke-width="1.56833" stroke-linecap="round" stroke-linejoin="round"/>
<path d="M5.27437 4.70697V3.13864C5.27437 2.72269 5.4396 2.32378 5.73372 2.02966C6.02784 1.73555 6.42675 1.57031 6.84269 1.57031H9.97935C10.3953 1.57031 10.7942 1.73555 11.0883 2.02966C11.3824 2.32378 11.5477 2.72269 11.5477 3.13864V4.70697M13.9002 4.70697V15.6853C13.9002 16.1012 13.7349 16.5001 13.4408 16.7942C13.1467 17.0884 12.7478 17.2536 12.3318 17.2536H4.4902C4.07426 17.2536 3.67535 17.0884 3.38123 16.7942C3.08711 16.5001 2.92188 16.1012 2.92188 15.6853V4.70697H13.9002Z" stroke="#FB6D3A" stroke-width="1.56833" stroke-linecap="round" stroke-linejoin="round"/>
<path d="M6.83984 8.62891V13.3339" stroke="#FB6D3A" stroke-width="1.56833" stroke-linecap="round" stroke-linejoin="round"/>
<path d="M9.97656 8.62891V13.3339" stroke="#FB6D3A" stroke-width="1.56833" stroke-linecap="round" stroke-linejoin="round"/>
</svg>
