<svg width="16" height="17" viewBox="0 0 16 17" fill="none" xmlns="http://www.w3.org/2000/svg">
<path d="M12.147 5.94396C12.147 4.80057 11.6928 3.70402 10.8843 2.89552C10.0758 2.08702 8.97925 1.63281 7.83586 1.63281C6.69248 1.63281 5.59592 2.08702 4.78742 2.89552C3.97892 3.70402 3.52472 4.80057 3.52472 5.94396C3.52472 10.9736 1.36914 12.4107 1.36914 12.4107H14.3026C14.3026 12.4107 12.147 10.9736 12.147 5.94396Z" stroke="#FFAA2A" stroke-width="1.5" stroke-linecap="round" stroke-linejoin="round"/>
<path d="M9.07984 15.2852C8.95352 15.5029 8.7722 15.6837 8.55405 15.8093C8.33589 15.935 8.08855 16.0011 7.8368 16.0011C7.58504 16.0011 7.3377 15.935 7.11955 15.8093C6.90139 15.6837 6.72007 15.5029 6.59375 15.2852" stroke="#FFAA2A" stroke-width="1.5" stroke-linecap="round" stroke-linejoin="round"/>
</svg>
