<svg width="17" height="16" viewBox="0 0 17 16" fill="none" xmlns="http://www.w3.org/2000/svg">
<path fill-rule="evenodd" clip-rule="evenodd" d="M1.3613 2.74853C1.59438 2.3626 3.05225 0.616586 3.96868 0.658962C4.24262 0.681663 4.48478 0.847382 4.68153 1.03959C5.13331 1.48075 6.4266 3.1493 6.5 3.50041C6.67859 4.36155 5.18595 5.13239 5.5 6.00034C6.30064 7.95947 8.04002 9.7005 10 10.5003C10.8672 10.8144 11.6388 9.32115 12.5 9.50049C12.8504 9.57389 14.5588 11.0487 15 11.5005C15.1915 11.6965 15.3579 11.9394 15.3806 12.2133C15.4147 13.1781 13.5427 14.4722 13.2521 14.6387C12.5665 15.1291 11.672 15.1207 10.5815 14.6137C7.53864 13.3478 2.67577 8.57671 1.38627 5.41896C0.892869 4.33459 0.858816 3.43411 1.3613 2.74853Z" stroke="#369BFF" stroke-width="1.3" stroke-linecap="round" stroke-linejoin="round"/>
</svg>
