<svg width="19" height="19" viewBox="0 0 19 19" fill="none" xmlns="http://www.w3.org/2000/svg">
<path d="M9.55215 18.0008C14.2182 18.0008 18.0008 14.2182 18.0008 9.55215C18.0008 4.8861 14.2182 1.10352 9.55215 1.10352C4.8861 1.10352 1.10352 4.8861 1.10352 9.55215C1.10352 14.2182 4.8861 18.0008 9.55215 18.0008Z" stroke="#FB6D3A" stroke-width="1.67823" stroke-linecap="round" stroke-linejoin="round"/>
<path d="M7.09375 7.01773C7.29238 6.45308 7.68444 5.97695 8.20048 5.67366C8.71653 5.37038 9.32326 5.25951 9.91321 5.36071C10.5032 5.4619 11.0383 5.76862 11.4237 6.22654C11.8092 6.68446 12.0202 7.26402 12.0193 7.86259C12.0193 9.55232 9.48471 10.3972 9.48471 10.3972" stroke="#FB6D3A" stroke-width="1.67823" stroke-linecap="round" stroke-linejoin="round"/>
<path d="M9.55273 13.7344H9.56074" stroke="#FB6D3A" stroke-width="1.67823" stroke-linecap="round" stroke-linejoin="round"/>
</svg>
