<svg width="296" height="247" viewBox="0 0 296 247" fill="none" xmlns="http://www.w3.org/2000/svg">
<g clip-path="url(#clip0_3023_3847)">
<path d="M13.7554 235.364C17.8612 242.976 26.5753 246.243 26.5753 246.243C26.5753 246.243 28.6324 237.17 24.5266 229.558C20.4208 221.947 11.7068 218.68 11.7068 218.68C11.7068 218.68 9.6496 227.753 13.7554 235.364Z" fill="#2F2E41"/>
<path d="M16.5762 232.863C23.9889 237.321 26.8437 246.176 26.8437 246.176C26.8437 246.176 17.6802 247.802 10.2676 243.345C2.85486 238.887 0 230.032 0 230.032C0 230.032 9.16348 228.405 16.5762 232.863Z" fill="#D9E6BA"/>
<path d="M182.77 11.8594H136.52V12.5198H182.77V11.8594Z" fill="#F2F2F2"/>
<path d="M170.215 12.3516H169.555V18.4608H170.215V12.3516Z" fill="#F2F2F2"/>
<path d="M150.063 12.3516H149.402V18.4608H150.063V12.3516Z" fill="#F2F2F2"/>
<path d="M206.227 43.5586H159.977V44.219H206.227V43.5586Z" fill="#F2F2F2"/>
<path d="M173.188 37.6172H172.527V43.7264H173.188V37.6172Z" fill="#F2F2F2"/>
<path d="M193.34 37.6172H192.68V43.7264H193.34V37.6172Z" fill="#F2F2F2"/>
<path d="M267.672 58.418H221.422V59.0784H267.672V58.418Z" fill="#F2F2F2"/>
<path d="M234.637 52.4766H233.977V58.5858H234.637V52.4766Z" fill="#F2F2F2"/>
<path d="M254.786 52.4766H254.125V58.5858H254.786V52.4766Z" fill="#F2F2F2"/>
<path d="M263.047 211.645H216.797V212.305H263.047V211.645Z" fill="#F2F2F2"/>
<path d="M230.012 205.699H229.352V211.808H230.012V205.699Z" fill="#F2F2F2"/>
<path d="M250.161 205.699H249.5V211.808H250.161V205.699Z" fill="#F2F2F2"/>
<path d="M184.09 105.641H137.84V106.301H184.09V105.641Z" fill="#F2F2F2"/>
<path d="M151.055 99.6992H150.395V105.808H151.055V99.6992Z" fill="#F2F2F2"/>
<path d="M171.208 99.6992H170.547V105.808H171.208V99.6992Z" fill="#F2F2F2"/>
<path d="M198.625 185.227H152.375V185.887H198.625V185.227Z" fill="#F2F2F2"/>
<path d="M165.59 179.281H164.93V185.39H165.59V179.281Z" fill="#F2F2F2"/>
<path d="M185.743 179.281H185.082V185.39H185.743V179.281Z" fill="#F2F2F2"/>
<path d="M272.625 161.121H226.375V161.782H272.625V161.121Z" fill="#F2F2F2"/>
<path d="M239.59 155.176H238.93V161.285H239.59V155.176Z" fill="#F2F2F2"/>
<path d="M259.743 155.176H259.082V161.285H259.743V155.176Z" fill="#F2F2F2"/>
<path d="M119.611 231.878H41.3867V231.316H119.048V204.032H47.9628L44.5096 196.841L45.017 196.598L48.3169 203.47H119.611V231.878Z" fill="#2F2E41"/>
<path d="M51.7957 245.661C55.0592 245.661 57.7047 243.016 57.7047 239.754C57.7047 236.492 55.0592 233.848 51.7957 233.848C48.5323 233.848 45.8867 236.492 45.8867 239.754C45.8867 243.016 48.5323 245.661 51.7957 245.661Z" fill="#735498"/>
<path d="M110.042 245.661C113.305 245.661 115.951 243.016 115.951 239.754C115.951 236.492 113.305 233.848 110.042 233.848C106.778 233.848 104.133 236.492 104.133 239.754C104.133 243.016 106.778 245.661 110.042 245.661Z" fill="#735498"/>
<path d="M178.701 117.965C180.721 117.965 182.359 116.328 182.359 114.309C182.359 112.289 180.721 110.652 178.701 110.652C176.681 110.652 175.043 112.289 175.043 114.309C175.043 116.328 176.681 117.965 178.701 117.965Z" fill="#735498"/>
<path d="M127.976 194.751H40.052L21.0273 132.59H147.569L147.454 132.956L127.976 194.751ZM40.4683 194.188H127.563L146.801 133.152H21.788L40.4683 194.188Z" fill="#2F2E41"/>
<path d="M121.113 191.516H43.8859L27.1758 136.387H138.321L138.22 136.711L121.113 191.516Z" fill="#F2F2F2"/>
<path d="M149.146 127.038L148.602 126.894L152.315 112.902H173.917V113.465H152.748L149.146 127.038Z" fill="#2F2E41"/>
<path d="M141.246 151.438H27.1758V152H141.246V151.438Z" fill="#2F2E41"/>
<path d="M134.714 172.16H33.5195V172.723H134.714V172.16Z" fill="#2F2E41"/>
<path d="M84.5784 132.871H84.0156V194.469H84.5784V132.871Z" fill="#2F2E41"/>
<path d="M109.774 132.857L105.734 194.453L106.296 194.49L110.336 132.893L109.774 132.857Z" fill="#2F2E41"/>
<path d="M58.8312 132.854L58.2695 132.891L62.2858 194.489L62.8475 194.452L58.8312 132.854Z" fill="#2F2E41"/>
<path d="M296 246.02H0V246.68H296V246.02Z" fill="#2F2E41"/>
<path d="M196.699 20.4316C196.699 20.4316 201.529 34.1711 198.557 36.2849C195.585 38.3987 208.587 55.6611 208.587 55.6611L224.189 51.4336L215.645 36.9895C215.645 36.9895 214.53 22.5454 214.53 20.4316C214.53 18.3179 196.699 20.4316 196.699 20.4316Z" fill="#A0616A"/>
<path opacity="0.1" d="M196.699 20.4316C196.699 20.4316 201.529 34.1711 198.557 36.2849C195.585 38.3987 208.587 55.6611 208.587 55.6611L224.189 51.4336L215.645 36.9895C215.645 36.9895 214.53 22.5454 214.53 20.4316C214.53 18.3179 196.699 20.4316 196.699 20.4316Z" fill="black"/>
<path d="M188.591 118.372C188.591 118.372 187.182 135.987 188.591 145.147C190.001 154.306 192.116 179.671 192.116 179.671C192.116 179.671 192.116 227.584 199.869 228.288C207.623 228.993 213.262 229.697 213.967 226.879C214.672 224.061 210.442 222.651 212.557 221.242C214.672 219.833 215.376 214.901 212.557 209.264C209.737 203.628 212.557 146.556 212.557 146.556L225.949 182.49C225.949 182.49 227.359 212.083 228.769 216.31C230.179 220.538 227.359 228.288 232.293 228.993C237.227 229.697 242.866 225.47 245.686 224.061C248.505 222.651 241.457 222.651 242.866 221.947C244.276 221.242 248.505 219.128 247.095 218.424C245.686 217.719 244.276 183.899 244.276 183.899C244.276 183.899 240.399 111.679 235.465 108.86C230.531 106.042 227.359 110.896 227.359 110.896L188.591 118.372Z" fill="#2F2E41"/>
<path d="M201.28 225.469V231.105C201.28 231.105 194.937 246.428 201.28 246.428C207.624 246.428 212.558 248.016 212.558 245.902V226.878L201.28 225.469Z" fill="#2F2E41"/>
<path d="M242.868 225.457V231.094C242.868 231.094 249.212 246.416 242.868 246.416C236.524 246.416 231.59 248.004 231.59 245.89V226.866L242.868 225.457Z" fill="#2F2E41"/>
<path d="M206.567 30.6504C213.574 30.6504 219.254 24.9722 219.254 17.9678C219.254 10.9634 213.574 5.28516 206.567 5.28516C199.559 5.28516 193.879 10.9634 193.879 17.9678C193.879 24.9722 199.559 30.6504 206.567 30.6504Z" fill="#A0616A"/>
<path d="M202.691 41.5703C202.691 41.5703 206.215 52.1391 211.854 50.0254L217.493 47.9116L227.361 115.552C227.361 115.552 219.608 126.826 208.33 119.78C197.052 112.734 202.691 41.5703 202.691 41.5703Z" fill="#D9E6BA"/>
<path d="M212.559 39.4553L215.73 32.7617C215.73 32.7617 234.41 41.5691 237.229 44.3874C240.048 47.2058 240.048 51.4333 240.048 51.4333L235.114 69.0481C235.114 69.0481 236.524 107.8 236.524 109.21C236.524 110.619 241.458 118.369 237.934 115.551C234.41 112.733 233.705 109.914 230.885 114.142C228.066 118.369 221.722 123.301 221.722 123.301L212.559 39.4553Z" fill="#735498"/>
<path d="M237.228 90.1875L235.113 109.916C235.113 109.916 222.425 121.189 225.245 121.894C228.064 122.599 229.474 119.78 229.474 119.78C229.474 119.78 234.408 124.712 237.228 121.894C240.047 119.076 247.096 92.3013 247.096 92.3013L237.228 90.1875Z" fill="#A0616A"/>
<path d="M206.837 0.0428869C204.024 -0.0576242 201.014 -0.107343 198.643 1.40778C197.552 2.16816 196.595 3.10464 195.811 4.17889C193.501 7.09758 191.505 10.77 192.363 14.3913L193.36 14.0028C193.36 14.9694 193.145 15.924 192.73 16.7974C192.871 16.3895 193.341 17.0488 193.215 17.4614L192.117 21.0611C193.922 20.3999 196.166 21.7387 196.441 23.6401C196.566 19.459 197 14.6646 200.393 12.2164C202.104 10.9818 204.27 10.6049 206.354 10.2702C208.276 9.96148 210.291 9.66705 212.132 10.2996C213.973 10.9321 215.541 12.8143 215.123 14.715C215.972 14.4227 216.922 15.0141 217.341 15.8076C217.761 16.6011 217.783 17.5372 217.795 18.4346C218.7 19.0738 219.73 17.8044 220.099 16.7599C220.964 14.3082 221.734 11.6984 221.267 9.14063C220.801 6.58283 218.716 4.13845 216.115 4.12978C216.431 3.78315 216.599 3.32736 216.585 2.85882L214.441 2.67776C214.985 2.60072 215.486 2.33694 215.857 1.93159C214.996 2.87833 208.229 0.0926223 206.837 0.0428869Z" fill="#2F2E41"/>
<path d="M206.214 37.3424C206.214 37.3424 200.476 31.7217 198.411 32.066C196.346 32.4103 193.526 37.3424 193.526 37.3424C193.526 37.3424 176.61 42.9791 177.314 48.6158C178.019 54.2526 185.773 81.7315 185.773 81.7315C185.773 81.7315 192.117 114.847 186.478 118.37C180.839 121.893 213.263 131.053 213.968 126.825C214.672 122.598 216.082 80.3224 213.968 73.9811C211.853 67.6398 206.214 37.3424 206.214 37.3424Z" fill="#735498"/>
<path d="M230.883 48.6172H239.599C239.599 48.6172 245.685 75.3916 246.39 78.2099C247.095 81.0283 248.505 94.4155 247.8 94.4155C247.095 94.4155 232.997 91.5971 232.997 93.7109L230.883 48.6172Z" fill="#735498"/>
<path d="M230.591 114.92H197.225C193.969 99.9474 193.697 85.4813 197.225 71.6602H230.591C225.206 85.2327 224.87 99.5997 230.591 114.92Z" fill="#F2F2F2"/>
<path d="M183.656 96.5286L193.524 100.756C193.524 100.756 212.556 103.575 212.556 95.824C212.556 88.0735 193.524 92.3011 193.524 92.3011L187.18 90.2734L183.656 96.5286Z" fill="#A0616A"/>
<path d="M185.771 44.3906L177.313 46.5044L170.969 83.8476C170.969 83.8476 168.854 93.7119 172.379 94.4165C175.903 95.1211 185.771 100.758 185.771 100.758C185.771 100.758 187.181 90.1889 190 90.1889L182.952 84.5522L187.181 59.8916L185.771 44.3906Z" fill="#735498"/>
<path d="M66.1523 116.539H19.9023V117.2H66.1523V116.539Z" fill="#F2F2F2"/>
<path d="M33.1177 110.594H32.457V116.703H33.1177V110.594Z" fill="#F2F2F2"/>
<path d="M53.2701 110.594H52.6094V116.703H53.2701V110.594Z" fill="#F2F2F2"/>
<path d="M82.3398 18.793H36.0898V19.4534H82.3398V18.793Z" fill="#F2F2F2"/>
<path d="M69.7857 19.2891H69.125V25.3983H69.7857V19.2891Z" fill="#F2F2F2"/>
<path d="M49.6373 19.2891H48.9766V25.3983H49.6373V19.2891Z" fill="#F2F2F2"/>
<path d="M128.922 83.8477H82.6719V84.5081H128.922V83.8477Z" fill="#F2F2F2"/>
<path d="M116.368 84.3438H115.707V90.4529H116.368V84.3438Z" fill="#F2F2F2"/>
<path d="M96.2154 84.3438H95.5547V90.4529H96.2154V84.3438Z" fill="#F2F2F2"/>
<path d="M50.2969 83.5156H4.04688V84.1761H50.2969V83.5156Z" fill="#F2F2F2"/>
<path d="M37.7427 84.0117H37.082V90.1209H37.7427V84.0117Z" fill="#F2F2F2"/>
<path d="M17.5904 84.0117H16.9297V90.1209H17.5904V84.0117Z" fill="#F2F2F2"/>
<path d="M105.797 50.4961H59.5469V51.1565H105.797V50.4961Z" fill="#F2F2F2"/>
<path d="M72.7623 44.5508H72.1016V50.66H72.7623V44.5508Z" fill="#F2F2F2"/>
<path d="M92.9107 44.5508H92.25V50.66H92.9107V44.5508Z" fill="#F2F2F2"/>
</g>
<defs>
<clipPath id="clip0_3023_3847">
<rect width="296" height="247" fill="white"/>
</clipPath>
</defs>
</svg>
