<svg width="21" height="21" viewBox="0 0 21 21" fill="none" xmlns="http://www.w3.org/2000/svg">
<path d="M20.1346 10.9948C19.9565 11.2791 19.7205 11.5229 19.4419 11.7105L12.1794 16.5981C11.6834 16.9321 11.0985 17.1105 10.5 17.1105C9.90152 17.1105 9.31668 16.9321 8.82066 16.5981L1.55815 11.7105C1.12349 11.4182 0.79677 10.992 0.627911 10.4971C0.459052 10.0022 0.457336 9.46584 0.623025 8.96989L8.83506 14.4272C9.29609 14.7335 9.83317 14.9066 10.3868 14.9273C10.9404 14.948 11.489 14.8155 11.9717 14.5445L12.1638 14.4272L20.3758 8.96989C20.4877 9.3043 20.524 9.65921 20.4823 10.0093C20.4406 10.3593 20.3219 10.6959 20.1346 10.9948ZM20.3758 12.8594C20.5425 13.3552 20.5414 13.8917 20.3727 14.3868C20.2039 14.8819 19.877 15.3081 19.4419 15.6L12.1794 20.4877C11.6834 20.8216 11.0985 21 10.5 21C9.90152 21 9.31668 20.8216 8.82066 20.4877L1.55815 15.6C1.12349 15.3077 0.79677 14.8815 0.627911 14.3866C0.459052 13.8918 0.457336 13.3554 0.623025 12.8594L8.83506 18.3167C9.29609 18.623 9.83317 18.7961 10.3868 18.8168C10.9404 18.8375 11.489 18.705 11.9717 18.434L12.1638 18.3167L20.3758 12.8594ZM12.165 0.502695L19.8057 5.58062C19.9701 5.68991 20.1049 5.83798 20.1981 6.01168C20.2913 6.18537 20.3401 6.37933 20.3401 6.57634C20.3401 6.77334 20.2913 6.9673 20.1981 7.141C20.1049 7.3147 19.9701 7.46276 19.8057 7.57205L12.165 12.6512C11.672 12.979 11.0926 13.1539 10.5 13.1539C9.90743 13.1539 9.3281 12.979 8.83506 12.6512L1.19442 7.57205C1.03002 7.46276 0.895215 7.3147 0.801982 7.141C0.70875 6.9673 0.659969 6.77334 0.659969 6.57634C0.659969 6.37933 0.70875 6.18537 0.801982 6.01168C0.895215 5.83798 1.03002 5.68991 1.19442 5.58062L8.83506 0.502695C9.3281 0.174915 9.90743 0 10.5 0C11.0926 0 11.672 0.174915 12.165 0.502695ZM9.97185 1.91609L9.83261 1.99627L2.94343 6.57634L9.83381 11.1576C10.0084 11.2736 10.2105 11.3419 10.4198 11.3558C10.6292 11.3696 10.8386 11.3285 11.027 11.2366L11.1663 11.1576L18.0554 6.57634L11.1651 1.99627C10.9907 1.88032 10.7889 1.8119 10.5798 1.79784C10.3706 1.78377 10.1603 1.82454 9.97185 1.91609Z" fill="#735498"/>
</svg>
