<svg width="339" height="149" viewBox="0 0 339 149" fill="none" xmlns="http://www.w3.org/2000/svg">
<g clip-path="url(#clip0_3023_2930)">
<path d="M100.853 122.682C99.6873 131.802 95.4018 140.146 90.8299 148.183C90.6787 148.457 90.5232 148.726 90.3639 149H42.8465C41.8855 148.751 40.9369 148.477 39.9922 148.183C34.6253 146.551 29.5585 144.062 24.9888 140.811C7.50715 128.232 0.780229 104.463 3.81863 83.1642C5.70792 69.9317 11.5227 56.4214 22.8459 49.2947C28.8244 45.5251 36.504 44.2998 43.3863 45.7007C43.5664 45.7334 43.7463 45.7742 43.9302 45.8109C49.8514 47.1424 55.1265 50.4505 58.1282 55.7802C63.5259 65.3575 60.3118 77.2218 57.658 87.8813C55.0121 98.5408 53.5767 111.3 61.2564 119.161C58.721 111.708 61.2237 102.817 67.2799 97.7771C71.8558 93.9748 78.2269 92.5494 84.0377 93.7298C84.5938 93.8482 85.1419 93.983 85.6816 94.1463C86.9862 94.5279 88.2439 95.0539 89.4314 95.7146C98.4891 100.767 102.157 112.402 100.853 122.682Z" fill="#F2F2F2"/>
<path d="M72.6784 148.183C73.995 148.49 75.3158 148.759 76.6449 149H69.4601C68.5194 148.747 67.583 148.477 66.6549 148.183C64.6143 147.546 62.605 146.815 60.6272 145.99C52.6941 142.666 45.3865 137.675 39.8579 131.034C37.154 127.817 34.946 124.214 33.3069 120.346C31.5295 115.974 30.3999 111.366 29.9538 106.668C28.9518 97.0298 29.9741 87.1258 31.8838 77.6589C33.8546 67.8469 37.0357 58.3168 41.3546 49.2866C41.8739 48.2043 42.411 47.1289 42.9657 46.0602C43.0039 45.9722 43.0617 45.8941 43.1347 45.8318C43.2076 45.7695 43.2939 45.7247 43.3869 45.7008C43.5756 45.6642 43.7712 45.7039 43.9308 45.811C44.1223 45.9208 44.2643 46.0998 44.3274 46.3111C44.3906 46.5223 44.3701 46.7498 44.2702 46.9464C39.8172 55.6193 36.4418 64.8031 34.2188 74.2936C32.0433 83.5522 30.8084 93.2397 31.2295 102.76C31.6302 111.655 33.9572 120.403 39.2363 127.677C44.0575 134.318 50.7148 139.553 58.0797 143.119C62.7412 145.346 67.638 147.045 72.6784 148.183Z" fill="white"/>
<path d="M88.446 149.001H86.3277C86.0905 148.731 85.8614 148.457 85.6366 148.184C80.8117 142.329 77.543 135.353 76.133 127.902C74.4207 118.604 75.7528 109.002 79.932 100.518C81.0979 98.1395 82.4718 95.8681 84.0376 93.7305C84.5937 93.8489 85.1418 93.9837 85.6815 94.147C81.563 99.5968 78.7928 105.942 77.597 112.664C76.5302 118.964 76.8849 125.421 78.6352 131.566C80.3854 137.711 83.4871 143.389 87.714 148.184C87.951 148.457 88.1964 148.731 88.446 149.001Z" fill="white"/>
<path d="M279.269 142.055C279.576 144.462 280.707 146.664 281.914 148.785C281.954 148.857 281.995 148.929 282.037 149.001H294.578C294.831 148.935 295.082 148.863 295.331 148.785C296.747 148.355 298.085 147.698 299.291 146.84C303.904 143.52 305.68 137.247 304.878 131.626C304.379 128.133 302.844 124.568 299.856 122.687C298.233 121.7 296.297 121.361 294.435 121.738C294.388 121.747 294.34 121.758 294.292 121.767C293.516 121.917 292.782 122.229 292.136 122.682C291.49 123.136 290.948 123.721 290.544 124.398C289.12 126.926 289.968 130.057 290.669 132.871C291.367 135.684 291.746 139.051 289.719 141.126C290.016 140.258 290.076 139.327 289.894 138.428C289.711 137.53 289.292 136.696 288.68 136.012C288.068 135.329 287.284 134.821 286.41 134.54C285.536 134.259 284.603 134.215 283.706 134.414C283.56 134.445 283.415 134.481 283.273 134.524C282.928 134.625 282.596 134.764 282.283 134.938C279.892 136.271 278.924 139.342 279.269 142.055Z" fill="#F2F2F2"/>
<path d="M286.703 148.785C286.356 148.866 286.007 148.937 285.656 149H287.552C287.801 148.934 288.048 148.862 288.293 148.785C288.831 148.617 289.362 148.424 289.884 148.206C292.001 147.348 293.881 145.994 295.365 144.259C296.079 143.41 296.661 142.459 297.094 141.438C297.563 140.284 297.861 139.068 297.979 137.828C298.194 135.265 298.022 132.684 297.469 130.172C296.949 127.583 296.11 125.067 294.97 122.684C294.833 122.399 294.691 122.115 294.545 121.833C294.535 121.81 294.519 121.789 294.5 121.772C294.481 121.756 294.458 121.744 294.434 121.738C294.384 121.728 294.332 121.739 294.29 121.767C294.24 121.796 294.202 121.843 294.185 121.899C294.169 121.955 294.174 122.015 294.201 122.067C295.376 124.356 296.267 126.779 296.853 129.284C297.458 131.741 297.723 134.268 297.642 136.797C297.599 139.148 296.864 141.435 295.529 143.373C294.231 145.118 292.523 146.517 290.556 147.448C289.326 148.036 288.033 148.485 286.703 148.785Z" fill="white"/>
<path d="M282.543 149.001H283.102C283.165 148.93 283.225 148.858 283.284 148.785C284.558 147.24 285.42 145.399 285.793 143.433C286.244 140.979 285.893 138.444 284.79 136.205C284.482 135.578 284.12 134.978 283.706 134.414C283.56 134.445 283.415 134.481 283.273 134.524C284.359 135.962 285.091 137.637 285.406 139.411C285.688 141.074 285.594 142.778 285.132 144.4C284.67 146.021 283.852 147.52 282.736 148.785C282.674 148.858 282.609 148.93 282.543 149.001Z" fill="white"/>
<path d="M166.232 86.7914H126.983L126.567 74.7389C126.549 74.2164 126.644 73.6963 126.847 73.2142C127.049 72.7322 127.354 72.2997 127.74 71.9465C128.126 71.5934 128.584 71.3279 129.082 71.1685C129.581 71.0091 130.108 70.9594 130.628 71.0229L153.468 73.8162H153.471C156.857 73.8253 160.101 75.1745 162.493 77.5683C164.885 79.9621 166.23 83.2053 166.232 86.5872V86.7914Z" fill="#735498"/>
<path d="M148.738 44.0391H121.364C121 44.039 120.639 44.1105 120.303 44.2496C119.967 44.3887 119.661 44.5926 119.404 44.8498C119.146 45.1069 118.942 45.4121 118.803 45.748C118.663 46.084 118.592 46.4441 118.592 46.8077V74.1475C118.592 74.5111 118.663 74.8712 118.803 75.2071C118.942 75.5431 119.146 75.8483 119.404 76.1054C119.661 76.3625 119.967 76.5665 120.303 76.7056C120.639 76.8447 121 76.9162 121.364 76.9161H148.738C149.102 76.9162 149.463 76.8447 149.799 76.7056C150.136 76.5665 150.441 76.3625 150.699 76.1054C150.956 75.8483 151.16 75.5431 151.3 75.2071C151.439 74.8712 151.51 74.5111 151.51 74.1475V46.8077C151.51 46.4441 151.439 46.084 151.3 45.748C151.16 45.4121 150.956 45.1068 150.699 44.8497C150.441 44.5926 150.136 44.3887 149.799 44.2496C149.463 44.1105 149.102 44.039 148.738 44.0391Z" fill="#CCCCCC"/>
<path d="M142.574 64.4825L129.65 66.9962C128.883 67.1444 128.089 66.9828 127.441 66.547C126.794 66.1111 126.346 65.4364 126.196 64.6711L125.202 59.5757C125.054 58.81 125.216 58.0168 125.652 57.3701C126.088 56.7233 126.764 56.2759 127.53 56.126L140.455 53.6123C141.222 53.4641 142.016 53.6256 142.663 54.0615C143.311 54.4974 143.759 55.172 143.909 55.9374L144.902 61.0328C145.051 61.7985 144.889 62.5917 144.453 63.2384C144.016 63.8851 143.341 64.3325 142.574 64.4825Z" fill="#3F3D56"/>
<path d="M139.988 58.4633L130.124 60.3817C129.944 60.4168 129.757 60.3789 129.605 60.2763C129.452 60.1737 129.347 60.0148 129.312 59.8346C129.276 59.6544 129.314 59.4677 129.417 59.3155C129.52 59.1632 129.679 59.058 129.859 59.0229L139.723 57.1046C139.903 57.0695 140.09 57.1074 140.243 57.21C140.395 57.3126 140.501 57.4715 140.536 57.6517C140.571 57.8318 140.533 58.0186 140.43 58.1708C140.327 58.323 140.168 58.4283 139.988 58.4633Z" fill="white"/>
<path d="M138.072 61.3032L132.97 62.2954C132.79 62.3305 132.603 62.2926 132.45 62.19C132.298 62.0874 132.192 61.9285 132.157 61.7483C132.122 61.5682 132.16 61.3814 132.263 61.2292C132.366 61.077 132.525 60.9718 132.705 60.9367L137.807 59.9444C137.896 59.927 137.988 59.9274 138.077 59.9455C138.167 59.9636 138.251 59.999 138.327 60.0498C138.402 60.1006 138.467 60.1658 138.517 60.2416C138.567 60.3173 138.602 60.4023 138.62 60.4915C138.637 60.5807 138.637 60.6725 138.619 60.7615C138.6 60.8506 138.565 60.9353 138.514 61.0106C138.463 61.086 138.398 61.1506 138.322 61.2008C138.246 61.251 138.161 61.2858 138.072 61.3032Z" fill="white"/>
<path d="M151.51 46.8077V50.4414H118.592V46.8077C118.592 46.4441 118.663 46.084 118.803 45.748C118.942 45.4121 119.146 45.1069 119.404 44.8498C119.661 44.5926 119.967 44.3887 120.303 44.2496C120.639 44.1105 121 44.039 121.364 44.0391H148.738C149.102 44.039 149.463 44.1105 149.799 44.2496C150.136 44.3887 150.441 44.5926 150.699 44.8498C150.956 45.1069 151.16 45.4121 151.3 45.748C151.439 46.084 151.51 46.4441 151.51 46.8077Z" fill="#B3B3B3"/>
<path d="M217.247 51.5788C217.057 50.9661 216.735 50.4025 216.303 49.9277C215.871 49.4528 215.341 49.0783 214.748 48.8305C214.156 48.5826 213.517 48.4675 212.875 48.4932C212.233 48.519 211.605 48.6849 211.034 48.9794L173.374 35.4844L171.715 44.8808L209.256 55.1913C209.815 56.1157 210.693 56.8034 211.726 57.1239C212.759 57.4444 213.873 57.3754 214.858 56.9302C215.843 56.4849 216.63 55.6942 217.071 54.7079C217.511 53.7216 217.574 52.6083 217.247 51.5788Z" fill="#FFB8B8"/>
<path opacity="0.2" d="M217.247 51.5788C217.057 50.9661 216.735 50.4025 216.303 49.9277C215.871 49.4528 215.341 49.0783 214.748 48.8305C214.156 48.5826 213.517 48.4675 212.875 48.4932C212.233 48.519 211.605 48.6849 211.034 48.9794L173.374 35.4844L171.715 44.8808L209.256 55.1913C209.815 56.1157 210.693 56.8034 211.726 57.1239C212.759 57.4444 213.873 57.3754 214.858 56.9302C215.843 56.4849 216.63 55.6942 217.071 54.7079C217.511 53.7216 217.574 52.6083 217.247 51.5788Z" fill="black"/>
<path d="M180.057 37.197L176.501 46.4762C176.399 46.7402 176.242 46.9793 176.04 47.1773C175.838 47.3752 175.596 47.5274 175.33 47.6233C175.063 47.7193 174.779 47.7568 174.497 47.7334C174.215 47.7099 173.942 47.626 173.695 47.4873L165.052 42.6288C163.702 42.1039 162.616 41.0662 162.032 39.7429C161.447 38.4196 161.412 36.9189 161.934 35.5696C162.455 34.2204 163.491 33.1328 164.815 32.5453C166.138 31.9578 167.64 31.9183 168.993 32.4354L178.644 34.5733C178.921 34.6346 179.181 34.7547 179.406 34.9253C179.632 35.0959 179.818 35.3131 179.952 35.5621C180.086 35.8111 180.165 36.086 180.183 36.3682C180.201 36.6503 180.158 36.933 180.057 37.197Z" fill="#735498"/>
<path d="M220.211 60.1699L206.717 66.2961L208.489 72.9577C211.91 85.8216 212.818 99.2234 211.163 112.43L221.029 114.489L229.208 93.6596L226.345 69.9718L220.211 60.1699Z" fill="#735498"/>
<path d="M246.689 91.0059C237.822 91.0059 230.597 97.4432 230.246 105.504H263.131C262.78 97.4432 255.555 91.0059 246.689 91.0059Z" fill="#3F3D56"/>
<path d="M239.787 92.3953C239.325 56.0066 218.575 59.3543 218.575 59.3543C218.575 59.3543 218.963 70.6809 219.15 71.0331C232.373 96.0195 210.55 125.312 182.772 119.923C182.248 119.822 181.745 119.719 181.262 119.614C177.743 118.88 174.635 116.835 172.572 113.894C170.508 110.953 169.644 107.338 170.155 103.783C172.891 81.8369 159.281 82.2253 159.281 82.2253H139.38L129.045 72.9356C128.68 72.6077 128.24 72.3741 127.764 72.2551C127.288 72.1361 126.79 72.1354 126.314 72.2531C125.837 72.3708 125.397 72.6033 125.031 72.9303C124.666 73.2572 124.386 73.6686 124.216 74.1286L122.886 77.7328C122.886 77.7328 103.258 79.7748 104.894 98.9701H110.962C110.947 99.5155 110.969 100.061 111.028 100.604L156.317 100.236C158.971 100.214 161.315 102.363 161.326 105.014C161.328 105.66 161.201 106.299 160.95 106.894C160.7 107.489 160.332 108.028 159.868 108.478C159.404 108.927 158.855 109.279 158.252 109.512C157.649 109.745 157.005 109.853 156.359 109.832L149.058 109.589C146.809 119.595 152.329 126.334 158.412 130.571C164.139 134.503 170.935 136.587 177.884 136.544H197.72C223.482 136.544 227.981 114.898 227.981 114.898C241.475 109.18 239.787 92.3953 239.787 92.3953Z" fill="#3F3D56"/>
<path d="M245.463 148.388C258.167 148.388 268.465 138.102 268.465 125.415C268.465 112.727 258.167 102.441 245.463 102.441C232.759 102.441 222.461 112.727 222.461 125.415C222.461 138.102 232.759 148.388 245.463 148.388Z" fill="#3F3D56"/>
<path d="M245.462 131.045C248.576 131.045 251.1 128.524 251.1 125.414C251.1 122.304 248.576 119.783 245.462 119.783C242.348 119.783 239.824 122.304 239.824 125.414C239.824 128.524 242.348 131.045 245.462 131.045Z" fill="white"/>
<path d="M129.328 148.387C143.951 148.387 155.806 136.548 155.806 121.943C155.806 107.338 143.951 95.498 129.328 95.498C114.704 95.498 102.85 107.338 102.85 121.943C102.85 136.548 114.704 148.387 129.328 148.387Z" fill="#3F3D56"/>
<path d="M129.328 128.424C132.912 128.424 135.817 125.522 135.817 121.942C135.817 118.363 132.912 115.461 129.328 115.461C125.743 115.461 122.838 118.363 122.838 121.942C122.838 125.522 125.743 128.424 129.328 128.424Z" fill="white"/>
<path d="M206.755 68.1068L201.9 54.9357C201.647 54.2493 201.532 53.5198 201.561 52.7889C201.59 52.058 201.763 51.34 202.071 50.6759C202.378 50.0118 202.813 49.4146 203.351 48.9185C203.889 48.4223 204.52 48.0369 205.207 47.7842L219.127 42.6663C220.336 42.2215 221.621 42.019 222.909 42.0703C224.197 42.1216 225.462 42.4257 226.632 42.9653C227.802 43.5048 228.854 44.2692 229.728 45.2149C230.602 46.1606 231.281 47.2689 231.727 48.4767C232.128 49.5608 232.333 50.7076 232.332 51.8635C232.327 53.3311 231.995 54.7792 231.359 56.1024C230.723 57.4256 229.8 58.5907 228.657 59.513C227.831 60.1746 226.903 60.6973 225.909 61.0605L206.755 68.1068Z" fill="#3F3D56"/>
<path d="M232.127 51.8639C232.125 53.3017 231.802 54.7209 231.179 56.0171C230.556 57.3134 229.65 58.4537 228.528 59.3542C226.806 58.9006 225.204 58.0779 223.833 56.9434C222.461 55.8089 221.354 54.3897 220.587 52.7845C219.821 51.1793 219.413 49.4267 219.393 47.6483C219.373 45.87 219.742 44.1087 220.472 42.4868C221.875 42.1822 223.328 42.1952 224.725 42.5248C226.122 42.8544 227.427 43.4923 228.545 44.3917C229.663 45.2911 230.564 46.429 231.184 47.7221C231.804 49.0151 232.126 50.4304 232.127 51.8639Z" fill="#735498"/>
<path d="M108.37 101.624C111.531 101.624 114.094 98.5158 114.094 94.6813C114.094 90.8468 111.531 87.7383 108.37 87.7383C105.208 87.7383 102.645 90.8468 102.645 94.6813C102.645 98.5158 105.208 101.624 108.37 101.624Z" fill="#735498"/>
<path d="M184.046 119.258H189.059L191.444 106.271L184.045 106.272L184.046 119.258Z" fill="#FFB8B8"/>
<path d="M182.768 117.623L192.641 117.623H192.641C193.467 117.623 194.285 117.786 195.049 118.101C195.812 118.417 196.506 118.88 197.09 119.464C197.674 120.047 198.138 120.74 198.454 121.502C198.77 122.265 198.933 123.082 198.933 123.907V124.111L182.768 124.112L182.768 117.623Z" fill="#2F2E41"/>
<path d="M189.865 113.927C189.807 113.927 189.748 113.924 189.689 113.919L182.751 113.414C182.471 113.388 182.2 113.298 181.96 113.151C181.719 113.004 181.516 112.804 181.366 112.566C181.215 112.328 181.121 112.059 181.092 111.779C181.062 111.499 181.097 111.216 181.194 110.952L190.479 90.117C190.545 89.9312 190.572 89.7338 190.559 89.5371C190.545 89.3403 190.49 89.1486 190.399 88.9739C190.307 88.7972 190.179 88.6417 190.024 88.5179C189.868 88.394 189.687 88.3045 189.494 88.2552C185.128 87.1153 173.926 84.0802 164.228 80.5289C160.074 79.0073 157.457 76.8085 156.451 73.9935C155.125 70.2823 157.087 66.8978 157.171 66.7558L157.237 66.6445L166.362 67.4729L176.254 68.3133L197.933 79.9235C199.749 80.9045 201.129 82.533 201.797 84.4845C202.466 86.436 202.373 88.5674 201.539 90.454L191.544 112.838C191.4 113.162 191.164 113.438 190.866 113.631C190.568 113.824 190.221 113.927 189.865 113.927Z" fill="#2F2E41"/>
<path d="M167.948 26.2534C173.495 26.2534 177.992 21.7623 177.992 16.2224C177.992 10.6824 173.495 6.19141 167.948 6.19141C162.401 6.19141 157.904 10.6824 157.904 16.2224C157.904 21.7623 162.401 26.2534 167.948 26.2534Z" fill="#FFB8B8"/>
<path d="M181.184 120.482H186.198L188.583 107.496L181.184 107.497L181.184 120.482Z" fill="#FFB8B8"/>
<path d="M179.904 118.848L189.777 118.848H189.778C190.604 118.848 191.422 119.01 192.186 119.326C192.949 119.642 193.643 120.105 194.227 120.688C194.811 121.272 195.275 121.964 195.591 122.727C195.907 123.489 196.07 124.306 196.07 125.132V125.336L179.905 125.336L179.904 118.848Z" fill="#2F2E41"/>
<path d="M187.002 115.154C186.944 115.154 186.885 115.151 186.826 115.145L179.888 114.641C179.607 114.615 179.337 114.525 179.096 114.378C178.856 114.231 178.653 114.03 178.502 113.793C178.352 113.555 178.258 113.285 178.228 113.006C178.198 112.726 178.233 112.443 178.33 112.178L187.616 91.3435C187.682 91.1578 187.709 90.9603 187.695 90.7636C187.681 90.5669 187.627 90.3751 187.535 90.2005C187.444 90.0237 187.316 89.8683 187.16 89.7444C187.004 89.6206 186.824 89.531 186.631 89.4818C182.265 88.3419 171.062 85.3067 161.365 81.7555C157.21 80.2339 154.594 78.0351 153.588 75.2201C152.262 71.5089 154.224 68.1244 154.308 67.9824L154.373 67.8711L163.499 68.6995L173.391 69.5398L195.07 81.15C196.886 82.1311 198.266 83.7596 198.934 85.7111C199.602 87.6626 199.51 89.7939 198.676 91.6805L188.681 114.065C188.537 114.389 188.301 114.664 188.003 114.857C187.705 115.051 187.357 115.154 187.002 115.154Z" fill="#2F2E41"/>
<path d="M171.046 31.9413L160.414 28.2656C160.414 28.2656 153.739 33.3871 156.946 46.0922C158.62 52.6484 158.132 59.5691 155.555 65.8266C155.245 66.6009 154.887 67.3553 154.484 68.0856C154.484 68.0856 166.343 82.38 177.384 71.7613L173.091 51.1366C173.091 51.1366 179.838 37.4549 171.046 31.9413Z" fill="#735498"/>
<path d="M169.195 26.5943C167.765 24.4573 166.637 21.4942 168.211 19.461C169.765 17.454 172.829 17.7497 175.208 16.8616C178.522 15.6247 180.444 11.7364 179.844 8.25411C179.245 4.77186 176.446 1.88518 173.112 0.70405C169.778 -0.477086 166.018 -0.0929527 162.752 1.2672C158.733 2.94156 155.285 6.18049 153.839 10.2834C152.393 14.3863 153.166 19.3125 156.166 22.4661C159.381 25.8471 164.428 26.7481 169.097 26.6934" fill="#2F2E41"/>
<path d="M159.853 8.36664C158.051 9.83115 155.303 9.18068 153.37 7.89539C151.436 6.6101 149.867 4.77993 147.775 3.77221C144.087 1.99564 139.628 3.17665 136.038 5.14451C132.449 7.11237 129.267 9.83102 125.475 11.3753C121.684 12.9196 116.845 12.9959 113.974 10.08C113.268 12.1244 113.21 14.3368 113.809 16.4152C114.408 18.4936 115.634 20.3369 117.321 21.6935C119.007 23.0501 121.072 23.854 123.233 23.9955C125.394 24.1369 127.545 23.6091 129.395 22.484C133.549 19.9566 135.844 14.6573 140.504 13.2624C143.082 12.4904 145.851 13.1121 148.457 13.7855C151.063 14.4589 153.78 15.1866 156.41 14.6133C159.04 14.04 161.5 11.6796 161.166 9.01205L159.853 8.36664Z" fill="#2F2E41"/>
<path d="M216.746 51.1705C216.482 50.5859 216.093 50.0663 215.606 49.6483C215.118 49.2303 214.545 48.924 213.927 48.7511C213.309 48.5781 212.66 48.5427 212.026 48.6473C211.392 48.7519 210.79 48.994 210.26 49.3565L171.22 40.6055L170.734 50.1345L209.262 55.7401C209.931 56.5887 210.888 57.1628 211.952 57.3536C213.017 57.5444 214.114 57.3387 215.036 56.7754C215.959 56.2121 216.643 55.3305 216.958 54.2975C217.273 53.2644 217.198 52.1518 216.746 51.1705Z" fill="#FFB8B8"/>
<path d="M178.066 41.4809L175.683 51.1274C175.615 51.4019 175.489 51.6586 175.313 51.8799C175.137 52.1013 174.915 52.2821 174.662 52.4101C174.41 52.5382 174.133 52.6104 173.85 52.6218C173.567 52.6333 173.285 52.5838 173.024 52.4766L163.846 48.7202C162.441 48.3665 161.234 47.4707 160.49 46.2293C159.746 44.9878 159.525 43.5022 159.876 42.0983C160.227 40.6945 161.122 39.4871 162.363 38.7411C163.604 37.995 165.091 37.7714 166.498 38.1191L176.34 39.0513C176.622 39.0781 176.894 39.1652 177.139 39.3067C177.384 39.4483 177.596 39.6409 177.76 39.8714C177.924 40.102 178.036 40.3651 178.088 40.6429C178.141 40.9206 178.133 41.2064 178.066 41.4809Z" fill="#735498"/>
<path d="M212.237 58.7412C213.818 58.7412 215.1 57.4612 215.1 55.8823C215.1 54.3034 213.818 53.0234 212.237 53.0234C210.657 53.0234 209.375 54.3034 209.375 55.8823C209.375 57.4612 210.657 58.7412 212.237 58.7412Z" fill="#735498"/>
<path d="M339 148.592C339 148.7 338.957 148.804 338.88 148.88C338.803 148.957 338.699 149 338.591 149H0.408926C0.300472 149 0.19646 148.957 0.119771 148.881C0.0430829 148.804 0 148.7 0 148.592C0 148.484 0.0430829 148.38 0.119771 148.303C0.19646 148.227 0.300472 148.184 0.408926 148.184H338.591C338.699 148.184 338.803 148.227 338.88 148.304C338.957 148.38 339 148.484 339 148.592Z" fill="#3F3D56"/>
</g>
<defs>
<clipPath id="clip0_3023_2930">
<rect width="339" height="149" fill="white"/>
</clipPath>
</defs>
</svg>
