<svg width="292" height="197" viewBox="0 0 292 197" fill="none" xmlns="http://www.w3.org/2000/svg">
<g clip-path="url(#clip0_3023_2878)">
<path d="M47.2717 24C47.2717 27.0122 46.677 29.9948 45.5217 32.7777C44.3664 35.5606 42.673 38.0892 40.5382 40.2191C38.4035 42.349 35.8692 44.0386 33.08 45.1913C30.2908 46.344 27.3013 46.9373 24.2823 46.9373C21.2633 46.9373 18.2739 46.344 15.4847 45.1913C12.6955 44.0386 10.1612 42.349 8.02639 40.2191C5.89163 38.0892 4.19825 35.5606 3.04293 32.7777C1.88761 29.9948 1.29297 27.0122 1.29297 24H47.2717Z" fill="#735498"/>
<path d="M1.27716 24.2266C1.27716 21.2144 1.87179 18.2317 3.02711 15.4488C4.18243 12.666 5.87582 10.1374 8.01058 8.00744C10.1453 5.87752 12.6797 4.18796 15.4689 3.03526C18.2581 1.88255 21.2475 1.28926 24.2665 1.28926C27.2855 1.28926 30.275 1.88255 33.0642 3.03526C35.8534 4.18796 38.3877 5.87752 40.5224 8.00744C42.6572 10.1374 44.3506 12.666 45.5059 15.4488C46.6612 18.2317 47.2559 21.2144 47.2559 24.2266L1.27716 24.2266Z" fill="#735498"/>
<path d="M9.72566 28.0721C9.72566 28.6718 9.5125 29.1579 9.24955 29.1579C8.98659 29.1579 8.77344 28.6718 8.77344 28.0721C8.80234 27.6663 8.97047 27.2829 9.24955 26.9863C9.52862 27.2829 9.69676 27.6663 9.72566 28.0721Z" fill="#3F3D56"/>
<path d="M38.6552 20.4865C38.6552 19.8868 38.8684 19.4007 39.1313 19.4007C39.3943 19.4007 39.6074 19.8868 39.6074 20.4865C39.5785 20.8922 39.4104 21.2757 39.1313 21.5723C38.8522 21.2757 38.6841 20.8922 38.6552 20.4865Z" fill="#3F3D56"/>
<path d="M33.8038 31.8729C33.8038 32.4726 33.5906 32.9587 33.3277 32.9587C33.0647 32.9587 32.8516 32.4726 32.8516 31.8729C32.8805 31.4671 33.0486 31.0837 33.3277 30.7871C33.6067 31.0837 33.7749 31.4671 33.8038 31.8729Z" fill="#3F3D56"/>
<path d="M14.6669 16.1525C14.6669 15.5528 14.8801 15.0667 15.143 15.0667C15.406 15.0667 15.6191 15.5528 15.6191 16.1525C15.5902 16.5583 15.4221 16.9417 15.143 17.2383C14.864 16.9417 14.6958 16.5583 14.6669 16.1525Z" fill="#3F3D56"/>
<path d="M16.1202 29.701C16.1202 30.3007 15.907 30.7868 15.6441 30.7868C15.3811 30.7868 15.168 30.3007 15.168 29.701C15.1969 29.2953 15.365 28.9118 15.6441 28.6152C15.9232 28.9118 16.0913 29.2953 16.1202 29.701Z" fill="#3F3D56"/>
<path d="M32.2997 18.7169C32.2997 18.1173 32.5129 17.6312 32.7758 17.6312C33.0388 17.6312 33.252 18.1173 33.252 18.7169C33.2231 19.1227 33.0549 19.5062 32.7758 19.8027C32.4968 19.5062 32.3286 19.1227 32.2997 18.7169Z" fill="#3F3D56"/>
<path d="M25.6417 38.2518C25.6417 38.8515 25.4285 39.3376 25.1656 39.3376C24.9026 39.3376 24.6895 38.8515 24.6895 38.2518C24.7184 37.846 24.8865 37.4626 25.1656 37.166C25.4446 37.4626 25.6128 37.846 25.6417 38.2518Z" fill="#3F3D56"/>
<path d="M22.9697 9.95718C22.9697 9.35752 23.1828 8.87139 23.4458 8.87139C23.7087 8.87139 23.9219 9.35752 23.9219 9.95718C23.893 10.363 23.7248 10.7464 23.4458 11.043C23.1667 10.7464 22.9986 10.363 22.9697 9.95718Z" fill="#3F3D56"/>
<path d="M15.4405 37.1659C15.4405 37.7655 15.2273 38.2517 14.9644 38.2517C14.7014 38.2517 14.4883 37.7655 14.4883 37.1659C14.5172 36.7601 14.6853 36.3766 14.9644 36.0801C15.2435 36.3766 15.4116 36.7601 15.4405 37.1659Z" fill="#3F3D56"/>
<path d="M33.1454 11.2677C33.1454 10.6681 33.3586 10.1819 33.6215 10.1819C33.8845 10.1819 34.0977 10.6681 34.0977 11.2677C34.0688 11.6735 33.9006 12.0569 33.6215 12.3535C33.3425 12.0569 33.1743 11.6735 33.1454 11.2677Z" fill="#3F3D56"/>
<path d="M39.2452 26.9862C39.2452 27.5858 39.032 28.072 38.7691 28.072C38.5061 28.072 38.293 27.5858 38.293 26.9862C38.3219 26.5804 38.49 26.197 38.7691 25.9004C39.0481 26.197 39.2163 26.5804 39.2452 26.9862Z" fill="#3F3D56"/>
<path d="M9.12004 20.9181C9.12004 20.3184 9.33321 19.8323 9.59616 19.8323C9.85911 19.8323 10.0723 20.3184 10.0723 20.9181C10.0434 21.3239 9.87523 21.7073 9.59616 22.0039C9.31709 21.7073 9.14894 21.3239 9.12004 20.9181Z" fill="#3F3D56"/>
<path d="M30.5382 40.4217C30.5382 41.0214 30.325 41.5075 30.062 41.5075C29.7991 41.5075 29.5859 41.0214 29.5859 40.4217C29.6148 40.016 29.783 39.6325 30.062 39.3359C30.3411 39.6325 30.5093 40.016 30.5382 40.4217Z" fill="#3F3D56"/>
<path d="M18.1201 7.67788C18.1201 7.07822 18.3332 6.59209 18.5962 6.59209C18.8591 6.59209 19.0723 7.07822 19.0723 7.67788C19.0434 8.08365 18.8752 8.4671 18.5962 8.76367C18.3171 8.4671 18.149 8.08365 18.1201 7.67788Z" fill="#3F3D56"/>
<path d="M24.2817 48.2267C17.844 48.2194 11.6721 45.6646 7.11998 41.1228C2.56786 36.581 0.00728685 30.4231 0 24H2.58458C2.58458 26.8428 3.14579 29.6579 4.23617 32.2843C5.32655 34.9108 6.92475 37.2972 8.9395 39.3074C10.9543 41.3176 13.3461 42.9122 15.9785 44.0001C18.6109 45.088 21.4323 45.6479 24.2816 45.6479C27.1309 45.6479 29.9523 45.088 32.5847 44.0001C35.2172 42.9122 37.609 41.3176 39.6238 39.3074C41.6385 37.2972 43.2367 34.9108 44.3271 32.2843C45.4175 29.6579 45.9787 26.8428 45.9787 24H48.5633C48.556 30.4231 45.9954 36.581 41.4433 41.1228C36.8912 45.6646 30.7193 48.2194 24.2817 48.2267Z" fill="#3F3D56"/>
<path d="M24.2808 -0.000120163C30.7185 0.00715065 36.8904 2.56194 41.4425 7.10374C45.9946 11.6456 48.5552 17.8035 48.5625 24.2266H45.9779C45.9779 21.3837 45.4167 18.5687 44.3263 15.9423C43.2359 13.3158 41.6378 10.9294 39.623 8.91917C37.6082 6.90897 35.2164 5.3144 32.584 4.22649C29.9516 3.13858 27.1302 2.57863 24.2809 2.57863C21.4316 2.57863 18.6102 3.13858 15.9778 4.22649C13.3453 5.3144 10.9535 6.90897 8.93872 8.91917C6.92397 10.9294 5.32578 13.3158 4.2354 15.9423C3.14502 18.5687 2.58381 21.3837 2.58381 24.2266L-0.000778198 24.2266C0.00650787 17.8035 2.56709 11.6456 7.11919 7.10376C11.6713 2.56195 17.8432 0.00716019 24.2808 -0.000120163Z" fill="#3F3D56"/>
<path d="M80.2111 25.3164H72.6016V32.9087H80.2111V25.3164Z" fill="#3F3D56"/>
<path d="M154.786 28.7344H93.5293V29.4936H154.786V28.7344Z" fill="#3F3D56"/>
<path d="M80.2111 82.4668H72.6016V90.0591H80.2111V82.4668Z" fill="#3F3D56"/>
<path d="M154.786 85.8848H93.5293V86.644H154.786V85.8848Z" fill="#3F3D56"/>
<path d="M80.2111 139H72.6016V146.592H80.2111V139Z" fill="#3F3D56"/>
<path d="M154.786 142.637H93.5293V143.396H154.786V142.637Z" fill="#3F3D56"/>
<path d="M240.586 52.1375L230.865 59.7819L210.268 52.5594C210.268 52.5594 203.265 44.7001 199.305 50.5539C197.948 52.5586 206.832 56.2624 207.67 56.6066C209.765 57.4672 229.836 68.4534 231.803 67.012C233.77 65.5707 244.835 58.2806 244.835 58.2806L240.586 52.1375Z" fill="#A0616A"/>
<path d="M273.767 39.0983C264.555 35.6636 255.791 34.0386 248.686 39.0983V22.7684C248.686 21.1252 249.01 19.4981 249.64 17.9801C250.27 16.462 251.194 15.0826 252.359 13.9207C253.523 12.7588 254.906 11.8371 256.427 11.2083C257.949 10.5795 259.58 10.2559 261.226 10.2559C262.873 10.2559 264.504 10.5795 266.026 11.2083C267.547 11.8371 268.93 12.7588 270.094 13.9207C271.259 15.0826 272.183 16.462 272.813 17.9801C273.443 19.4982 273.767 21.1252 273.767 22.7684L273.767 39.0983Z" fill="#2F2E41"/>
<path d="M250.618 74.7707L249.865 80.0284C249.865 80.0284 247.983 85.6616 249.865 96.177L219.564 178.61L241.96 184.995L253.064 139.929L268.685 105.566L267.179 144.623L259.275 186.309L282.612 185.37L289.412 113.891C290.512 102.595 288.548 91.2107 283.726 80.931C281.84 76.9337 279.811 73.7832 277.971 73.3259C272.449 71.954 250.618 74.7707 250.618 74.7707Z" fill="#2F2E41"/>
<path d="M222.387 178.047L214.671 186.309C214.671 186.309 199.803 194.008 210.342 194.947C220.882 195.886 224.458 191.754 224.458 191.754C224.458 191.754 237.632 190.816 237.443 188.938C237.255 187.06 236.314 180.863 236.314 180.863L222.387 178.047Z" fill="#2F2E41"/>
<path d="M264.263 180.038V185.86C264.263 185.86 264.451 188.301 264.263 188.864C264.075 189.427 261.252 196.375 270.662 194.873C280.072 193.371 276.308 187.549 276.308 187.549L274.05 179.1L264.263 180.038Z" fill="#2F2E41"/>
<path d="M261.109 34.2113C266.333 34.2113 270.567 29.9868 270.567 24.7756C270.567 19.5644 266.333 15.3398 261.109 15.3398C255.886 15.3398 251.652 19.5644 251.652 24.7756C251.652 29.9868 255.886 34.2113 261.109 34.2113Z" fill="#A0616A"/>
<path d="M267.649 29.987C267.649 29.987 266.332 42.3801 267.649 44.6334C268.967 46.8867 254.287 42.3801 254.287 42.3801C254.287 42.3801 257.487 33.9303 256.357 30.5503C255.228 27.1703 267.649 29.987 267.649 29.987Z" fill="#A0616A"/>
<path d="M275.178 65.6634L278.189 73.9255L250.147 77.1177C250.147 77.1177 247.136 76.5544 247.136 74.1133C247.136 71.6722 243.936 63.0346 243.936 63.0346C243.936 63.0346 236.1 56.6978 232.336 55.0079C230.972 54.3957 233.013 54.6485 234.161 52.0497C234.505 51.2686 234.918 50.4442 235.367 49.6086C235.734 48.9232 236.13 48.2285 236.534 47.5431C237.025 46.7075 237.532 45.885 238.023 45.102C239.51 42.7342 240.867 40.7437 241.301 39.9382C242.619 37.4971 255.004 37.2793 255.004 37.2793C258.546 39.5026 268.779 39.9382 268.779 39.9382C268.779 39.9382 275.817 42.8769 278.75 45.102C278.962 45.2616 275.178 65.6634 275.178 65.6634Z" fill="#E6E6E6"/>
<path d="M269.091 13.4487V13.2246L268.824 13.2394C267.308 12.0874 265.549 11.295 263.68 10.9224C261.811 10.5498 259.882 10.6068 258.038 11.089C259.805 11.5549 261.449 12.402 262.852 13.5705L253.787 14.0729L249.961 22.556H252.55L254.637 18.7386V22.556H263.395L263.99 19.5869L265.643 22.556H267.364C267.374 22.7677 267.391 22.9779 267.391 23.1922L265.69 39.5222L273.767 36.1289V23.1922C273.769 21.3224 273.35 19.4762 272.54 17.7897C271.731 16.1033 270.552 14.6198 269.091 13.4487Z" fill="#2F2E41"/>
<path d="M281.765 56.6504L281.2 71.4846L279.694 100.214C279.694 100.214 281.765 112.607 276.495 112.42C271.225 112.232 275.177 97.7732 275.177 97.7732L273.672 75.0524L275.177 59.0915L281.765 56.6504Z" fill="#A0616A"/>
<path d="M283.271 64.7239C283.271 66.4138 273.767 65.9444 273.767 65.9444L268.779 39.9375C268.779 39.9375 275.818 42.8762 278.75 45.1013C279.44 45.8155 280.005 46.6408 280.42 47.5424C280.644 48.1452 280.856 48.8437 281.058 49.6079C281.257 50.3665 281.443 51.1909 281.618 52.049C282.44 56.2344 282.992 60.4681 283.271 64.7239Z" fill="#E6E6E6"/>
<path d="M24.0266 142.054L9.62092 140.566C9.73162 139.803 9.64663 139.024 9.3739 138.302C9.10118 137.581 8.64961 136.94 8.06137 136.44C7.47313 135.94 6.76741 135.596 6.01013 135.442C5.25285 135.288 4.46872 135.327 3.73097 135.557C2.99322 135.787 2.32592 136.2 1.7914 136.757C1.25688 137.314 0.872579 137.997 0.674388 138.743C0.476196 139.488 0.470587 140.271 0.658074 141.019C0.845561 141.768 1.22003 142.456 1.74651 143.021C1.2116 143.597 0.834831 144.301 0.652651 145.066C0.470471 145.83 0.489044 146.628 0.706574 147.383C0.924104 148.138 1.33323 148.824 1.89438 149.376C2.45553 149.927 3.14971 150.324 3.90978 150.529C4.66985 150.734 5.47009 150.74 6.2331 150.546C6.99611 150.352 7.69605 149.965 8.26525 149.422C8.83444 148.879 9.25362 148.199 9.48223 147.448C9.71084 146.696 9.74116 145.898 9.57024 145.131L24.0266 143.805V142.054Z" fill="#CCCCCC"/>
<path d="M38.6741 151.933C44.3372 153.322 50.0422 149.314 50.3375 143.503C50.3457 143.342 50.3498 143.18 50.3498 143.017C50.3498 142.853 50.3457 142.691 50.3375 142.53C50.0422 136.719 44.3372 132.711 38.6741 134.101L19.4621 138.814C18.9086 138.814 18.3605 138.922 17.849 139.133C17.3375 139.344 16.8727 139.653 16.4812 140.044C16.0896 140.434 15.779 140.897 15.5671 141.408C15.3552 141.918 15.2461 142.464 15.2461 143.017C15.2461 143.569 15.3552 144.116 15.5671 144.626C15.779 145.136 16.0896 145.599 16.4812 145.99C16.8727 146.38 17.3375 146.689 17.849 146.9C18.3605 147.111 18.9086 147.22 19.4621 147.219L38.6741 151.933Z" fill="#735498"/>
<g clip-path="url(#clip1_3023_2878)">
<path d="M40.3392 86.0008C41.6185 85.5394 42.881 84.8424 43.929 83.7943C47.5096 80.2138 46.9838 74.0772 46.9597 73.8177L46.8864 73.0316L46.1005 72.9584C46.0836 72.9568 45.6808 72.9199 45.0395 72.9199C42.8557 72.9199 38.7937 73.3188 36.1235 75.9888C34.5953 77.5169 33.8167 79.5101 33.4262 81.3138C31.1996 79.5297 28.2432 77.6172 24.8483 76.5515C24.9916 75.0345 24.8969 73.9246 24.8868 73.8177L24.8135 73.0316L24.0277 72.9584C24.0107 72.9568 23.6079 72.9199 22.9666 72.9199C20.7828 72.9199 16.7208 73.3188 14.0508 75.9888C13.7165 76.3231 13.4181 76.6797 13.1517 77.0517C7.01533 79.6808 3.49702 85.2822 3.30731 85.5904L3 86.0893L3.30731 86.5882C3.55581 86.9916 9.50897 96.469 19.5741 96.469C25.1882 96.469 30.141 93.504 33.4594 90.8384C33.8603 92.6017 34.6376 94.527 36.1233 96.0129C38.7933 98.6829 42.8555 99.0816 45.0393 99.0818C45.6806 99.0818 46.0834 99.0449 46.1003 99.0433L46.8862 98.9701L46.9595 98.184C46.9836 97.9247 47.5096 91.7881 43.9289 88.2074C42.881 87.1593 41.6185 86.4623 40.3392 86.0008ZM12.1449 85.7847C11.2063 85.7847 10.4453 85.0237 10.4453 84.0851C10.4453 83.1464 11.2063 82.3855 12.1449 82.3855C13.0836 82.3855 13.8445 83.1464 13.8445 84.0851C13.8445 85.0237 13.0836 85.7847 12.1449 85.7847Z" fill="#735498"/>
</g>
</g>
<defs>
<clipPath id="clip0_3023_2878">
<rect width="292" height="197" fill="white"/>
</clipPath>
<clipPath id="clip1_3023_2878">
<rect width="44" height="44" fill="white" transform="translate(3 64)"/>
</clipPath>
</defs>
</svg>
