<svg width="324" height="243" viewBox="0 0 324 243" fill="none" xmlns="http://www.w3.org/2000/svg">
<g clip-path="url(#clip0_3023_2975)">
<path opacity="0.1" d="M29.0158 56.9094C22.9396 67.9179 27.038 81.6587 28.034 94.337C28.6387 102.086 28.0047 109.887 26.1589 117.41C23.5389 128.091 18.5187 138.11 17.2344 149.039C15.9501 159.969 19.9172 172.847 29.7721 176.648C32.218 177.593 34.8637 177.911 37.2439 179.029C43.6997 182.065 46.5623 190.189 46.782 197.603C47.0018 205.017 45.2666 212.391 45.5805 219.802C45.7574 223.973 46.6907 228.33 49.3877 231.399C51.8679 234.22 55.4754 235.571 58.9487 236.773C69.9309 240.577 81.3984 243.941 92.9115 242.766C104.425 241.591 116.095 234.967 120.518 223.761C122.119 219.705 122.713 215.26 124.323 211.216C125.932 207.172 128.98 203.289 133.125 202.655C135.545 202.284 137.976 203.068 140.311 203.839L173.777 214.92C178.914 216.623 184.679 218.287 189.503 215.764C191.983 214.465 193.864 212.209 195.673 209.996C209.972 192.615 224.87 173.764 227.487 150.973C228.409 142.943 227.732 134.773 228.757 126.758C229.781 118.743 232.918 110.44 239.428 106.114C244.448 102.774 250.661 102.273 256.575 101.599C266.147 100.506 275.78 98.6541 284.461 94.2914C293.143 89.9287 300.869 82.8094 304.565 73.4889C305.658 70.7322 306.392 67.6811 305.775 64.7696C304.674 59.575 299.762 56.3933 295.158 54.1436C281.391 47.4645 266.458 43.8881 251.586 40.7398C244.765 39.2947 237.887 37.9254 230.917 38.0074C224.893 38.0742 218.93 39.2218 212.997 40.3117C162.184 49.6049 107.279 55.4734 56.2802 44.1431C45.5862 41.766 34.8408 46.3533 29.0158 56.9094Z" fill="#735498"/>
<path opacity="0.4" d="M107 35.1705C107 35.1705 162.787 14.2971 184.711 29.627C199.791 40.1688 233.77 37.1382 253.522 34.2141C264.448 32.595 275.545 34.0118 285.921 38.3504C295.917 42.5355 306.427 47.5886 305.987 50.1745C305.155 55.0662 107 52.13 107 52.13V35.1705Z" fill="#735498"/>
<path d="M262.12 129.948L261.877 129.97L261.953 129.781L261.649 129.906L261.953 129.106C261.953 129.106 260.964 129.504 259.132 130.155C214.148 132.251 120.021 94.1074 120.021 94.1074L67.9188 101.258C67.616 100.975 67.3294 100.676 67.0605 100.361L67.2918 101.301C67.2107 101.211 67.1336 101.123 67.0605 101.036L67.1427 101.364H67.0605L67.1884 101.541L73.1503 125.709C73.1503 125.709 179.399 184.215 243.343 176.778L261.545 130.803L262.12 129.948Z" fill="url(#paint0_linear_3023_2975)"/>
<path d="M121.66 95.6484C121.66 95.6484 216.493 134.069 258.534 130.16L230.508 171.85L129.165 140.258L79.6191 117.784L102.749 102.151L121.66 95.6484Z" fill="#735498"/>
<path opacity="0.1" d="M121.66 95.6484C121.66 95.6484 216.493 134.069 258.534 130.16L230.508 171.85L129.165 140.258L79.6191 117.784L102.749 102.151L121.66 95.6484Z" fill="black"/>
<path opacity="0.1" d="M117.91 107.201L143.167 112.901L91.6769 122.019L79.6191 111.271L117.91 107.201Z" fill="white"/>
<path opacity="0.1" d="M129.152 130.486L158.974 119.576L179.994 126.578L143.167 140.258L129.152 130.486Z" fill="white"/>
<path opacity="0.1" d="M170.217 142.862L202.969 133.908L232.137 141.886L201.177 152.309L170.217 142.862Z" fill="white"/>
<path d="M70.6562 102.642L121.66 95.6406V108.016L78.9676 114.203L70.6562 102.642Z" fill="#735498"/>
<path opacity="0.1" d="M70.9824 103.293L121.66 95.6406V108.016L78.9681 114.203L70.9824 103.293Z" fill="white"/>
<path d="M25.5215 61.9281C25.5244 56.9433 27.2076 52.1049 30.2997 48.1935C33.3918 44.2822 37.7124 41.5261 42.5642 40.37C63.7854 35.2816 99.3742 29.1165 116.782 39.4575C142.529 54.7654 215.201 41.4102 215.201 41.4102C215.201 41.4102 260.172 55.0969 259.195 59.9633C258.218 64.8297 25.5306 61.9159 25.5306 61.9159L25.5215 61.9281Z" fill="#735498"/>
<path d="M205.3 44.5819C205.86 44.0618 206.387 43.4474 206.548 42.6992C206.71 41.951 206.39 41.0537 205.675 40.78C204.874 40.4759 204.016 41.0294 203.368 41.589C202.72 42.1487 201.974 42.7904 201.125 42.6718C201.562 42.2755 201.889 41.7728 202.074 41.2126C202.26 40.6524 202.296 40.0538 202.181 39.4752C202.14 39.2356 202.035 39.0116 201.877 38.8274C201.432 38.3529 200.626 38.5567 200.093 38.9308C198.398 40.123 197.926 42.4224 197.917 44.4937C197.747 43.7455 197.89 42.9729 197.887 42.2034C197.884 41.4339 197.674 40.5884 197.026 40.1778C196.623 39.9627 196.17 39.8578 195.714 39.8736C194.953 39.8463 194.104 39.9223 193.584 40.4819C192.938 41.1724 193.106 42.3342 193.666 43.0976C194.226 43.861 195.084 44.3355 195.872 44.8617C196.504 45.2377 197.043 45.7513 197.449 46.3642C197.496 46.4494 197.535 46.5391 197.564 46.6318H202.339C203.415 46.0858 204.411 45.3962 205.3 44.5819Z" fill="#735498"/>
<path d="M100.367 34.1585C100.927 33.6384 101.453 33.024 101.615 32.2758C101.776 31.5276 101.456 30.6304 100.741 30.3566C99.9408 30.0525 99.0826 30.606 98.4343 31.1657C97.7861 31.7253 97.0405 32.3671 96.1914 32.2484C96.6307 31.851 96.959 31.3462 97.1441 30.7836C97.3293 30.2211 97.3649 29.6201 97.2474 29.0397C97.2069 28.8001 97.1017 28.5761 96.9431 28.3918C96.4988 27.9173 95.6923 28.1211 95.1597 28.4952C93.4646 29.6875 92.9929 31.9869 92.9837 34.0581C92.8133 33.3099 92.9563 32.5374 92.9533 31.7679C92.9503 30.9984 92.7403 30.1528 92.092 29.7422C91.6892 29.5272 91.2367 29.4223 90.7803 29.4381C90.0195 29.4107 89.1704 29.4868 88.65 30.0464C88.0048 30.7368 88.1722 31.8987 88.7322 32.6621C89.2922 33.4255 90.1504 33.9 90.9386 34.4261C91.5704 34.8022 92.1093 35.3157 92.5151 35.9286C92.5623 36.0139 92.601 36.1035 92.6307 36.1963H97.4057C98.4804 35.654 99.4766 34.9685 100.367 34.1585Z" fill="#735498"/>
<path d="M256.14 56.6327C256.7 56.1126 257.227 55.4982 257.388 54.75C257.549 54.0018 257.23 53.1045 256.515 52.8308C255.714 52.5266 254.856 53.0802 254.208 53.6398C253.56 54.1995 252.814 54.8412 251.965 54.7226C252.402 54.3263 252.729 53.8235 252.914 53.2633C253.099 52.7031 253.136 52.1046 253.021 51.526C252.98 51.2864 252.875 51.0624 252.717 50.8782C252.272 50.4037 251.466 50.6075 250.933 50.9816C249.238 52.1738 248.766 54.4732 248.757 56.5444C248.587 55.7962 248.73 55.0237 248.727 54.2542C248.724 53.4847 248.514 52.6392 247.865 52.2286C247.463 52.0135 247.01 51.9086 246.554 51.9244C245.793 51.8971 244.944 51.9731 244.423 52.5327C243.778 53.2231 243.946 54.385 244.506 55.1484C245.066 55.9118 245.924 56.3863 246.712 56.9125C247.344 57.2885 247.883 57.8021 248.288 58.415C248.336 58.5002 248.374 58.5898 248.404 58.6826H253.179C254.255 58.1366 255.251 57.4469 256.14 56.6327Z" fill="#735498"/>
<path d="M196.25 154.35C193.207 151.348 190.8 147.784 189.528 143.72C188.551 140.59 187.677 137.534 187.677 136.545C187.677 134.815 185.27 128.303 182.297 125.164C182.193 125.054 182.087 124.948 181.992 124.86C181.475 122.816 180.443 117.661 182.233 114.461C182.67 113.68 183.036 112.86 183.325 112.013C184.398 108.731 186.047 105.667 188.195 102.964C188.625 102.444 189.006 101.885 189.333 101.294C190.078 101.422 190.517 101.215 190.425 100.482C190.425 100.455 190.425 100.427 190.425 100.4C190.769 100.321 190.949 100.072 190.888 99.582C190.434 95.9748 192.251 84.6999 192.251 84.6999C193.976 79.6132 194.738 74.2498 194.497 68.8842C194.044 60.3163 184.953 58.5127 184.953 58.5127L184.202 59.2579C183.593 58.8838 182.911 58.464 182.221 58.02C182.358 57.9603 182.483 57.8739 182.588 57.7659C182.692 57.6578 182.774 57.5302 182.829 57.3904C183.617 55.7571 183.657 53.5186 183.77 51.7484C183.836 51.1771 183.809 50.5988 183.69 50.0361C183.545 49.5552 183.309 49.1062 182.997 48.713C182.294 47.7879 181.396 47.0285 180.367 46.4887C179.337 45.9489 178.202 45.6419 177.041 45.5894C176.286 45.559 175.519 45.6381 174.78 45.6381C173.392 45.6381 172.004 45.3704 170.622 45.486C169.241 45.6016 167.78 46.2099 167.168 47.4478C166.785 48.2233 166.782 49.1571 166.328 49.8809C165.805 50.7295 164.785 51.1614 164.198 51.9674C163.877 52.4097 163.703 52.9418 163.702 53.4882C163.693 53.6657 163.73 53.8425 163.808 54.0022C163.948 54.1948 164.12 54.3616 164.317 54.4949C164.652 54.7999 164.874 55.2103 164.945 55.6582C165.016 56.1062 164.931 56.5649 164.706 56.9585C165.175 57.0461 165.608 57.2695 165.951 57.601C166.294 57.9325 166.532 58.3574 166.636 58.8229C166.645 58.9793 166.703 59.1289 166.8 59.2518C166.887 59.3229 166.993 59.3672 167.104 59.3795C167.99 59.5316 168.885 59.1149 169.554 58.5157C169.609 58.6161 169.661 58.7134 169.722 58.8199C170.52 60.1291 171.763 61.1075 173.224 61.5766C174.684 62.0457 176.265 61.974 177.677 61.3747C177.803 61.5329 177.926 61.6961 178.048 61.8644C178.553 62.563 178.968 63.3223 179.284 64.1243L178.584 64.8177C177.969 65.7817 177.415 66.7833 176.925 67.8166C175.791 69.9799 174.959 72.2887 174.454 74.6782C172.804 76.3085 170.254 79.2405 169.95 81.9535C169.95 81.9535 158.132 87.8175 154.952 84.6604C151.772 81.5033 147.682 86.9142 148.589 87.8175C149.495 88.7208 152.225 90.5244 155.406 88.7299H168.136C170.072 88.4718 171.936 87.823 173.614 86.8229C173.389 87.4312 173.109 88.0608 172.798 88.7026C172.321 89.615 171.806 90.5274 171.325 91.3456C171.061 91.5616 170.799 91.7714 170.537 91.9722C168.909 92.6443 166.861 93.4929 164.733 94.4053C163.56 94.655 162.448 95.1324 161.459 95.8105C156.547 97.9396 152.101 100.014 152.231 100.446C151.903 100.662 151.732 100.823 151.778 100.908C151.824 100.993 151.863 101.097 151.927 101.255C151.577 102.541 151.51 105.172 152.231 110.379C154.057 123.458 149.958 125.711 149.958 125.711C149.958 125.711 146.778 129.769 143.141 129.319C139.504 128.868 142.688 132.476 145.88 132.026C148.026 131.721 152.658 131.417 155.439 131.25C155.69 131.235 155.935 131.164 156.156 131.043C156.377 130.922 156.568 130.754 156.716 130.55C156.864 130.347 156.965 130.113 157.012 129.866C157.059 129.619 157.051 129.365 156.988 129.121C156.462 127.127 156.393 125.041 156.787 123.017C157.472 119.622 159.185 113.162 159.797 109.595V109.555C160.71 108.643 162.411 107.386 164.508 107.685C165.601 107.84 167.552 106.821 169.645 105.422C168.55 111.654 167.713 118.348 168.599 120.763C170.425 125.724 172.235 127.977 172.235 127.977C172.235 127.977 173.109 128.017 174.335 128.002L174.923 128.914L183.14 141.518C183.14 141.518 190.41 151.89 183.593 153.243C183.593 153.243 178.139 154.596 180.413 156.4C180.413 156.4 196.32 156.85 196.774 155.488C196.883 155.138 196.652 154.745 196.25 154.35Z" fill="url(#paint1_linear_3023_2975)"/>
<path d="M186.274 61.2187C186.274 61.2187 180.09 73.5793 179.649 67.399C179.521 65.5609 178.881 63.7952 177.802 62.3014C176.672 60.7329 175.185 59.4548 173.465 58.5726C173.465 58.5726 176.998 51.9512 176.557 53.7062C176.332 54.6186 178.873 56.55 181.426 58.2319C183.846 59.8469 186.274 61.2187 186.274 61.2187Z" fill="#FFB9B9"/>
<path d="M157.121 122.14C156.738 124.122 156.805 126.164 157.316 128.116C157.38 128.355 157.391 128.604 157.346 128.847C157.302 129.09 157.205 129.319 157.061 129.52C156.917 129.72 156.731 129.886 156.515 130.006C156.299 130.126 156.059 130.196 155.813 130.212C153.107 130.373 148.606 130.671 146.522 130.969C143.429 131.41 140.337 127.879 143.871 128.32C147.404 128.761 150.496 124.789 150.496 124.789C150.496 124.789 154.471 122.581 152.706 109.779C152.003 104.685 152.07 102.106 152.401 100.849C152.466 100.531 152.607 100.232 152.812 99.9796C152.905 99.8734 153.028 99.799 153.165 99.7667C153.32 99.7516 153.477 99.771 153.624 99.8236C153.771 99.8762 153.904 99.9606 154.014 100.071C154.014 100.071 159.757 105.369 160.198 106.692C160.308 107.018 160.229 107.863 160.031 109.007C159.453 112.495 157.788 118.816 157.121 122.14Z" fill="#FFB9B9"/>
<path opacity="0.05" d="M157.121 122.14C156.738 124.122 156.805 126.164 157.316 128.116C157.38 128.355 157.391 128.604 157.346 128.847C157.302 129.09 157.205 129.319 157.061 129.52C156.917 129.72 156.731 129.886 156.515 130.006C156.299 130.126 156.059 130.196 155.813 130.212C153.107 130.373 148.606 130.671 146.522 130.969C143.429 131.41 140.337 127.879 143.871 128.32C147.404 128.761 150.496 124.789 150.496 124.789C150.496 124.789 154.471 122.581 152.706 109.779C152.003 104.685 152.07 102.106 152.401 100.849C152.466 100.531 152.607 100.232 152.812 99.9796C152.905 99.8734 153.028 99.799 153.165 99.7667C153.32 99.7516 153.477 99.771 153.624 99.8236C153.771 99.8762 153.904 99.9606 154.014 100.071C154.014 100.071 159.757 105.369 160.198 106.692C160.308 107.018 160.229 107.863 160.031 109.007C159.453 112.495 157.788 118.816 157.121 122.14Z" fill="black"/>
<path d="M195.994 153.926C195.553 155.249 180.092 154.808 180.092 154.808C177.883 153.041 183.185 151.718 183.185 151.718C189.81 150.395 182.743 140.24 182.743 140.24L174.739 127.888L173.014 125.218C173.014 125.218 175.223 122.127 179.198 122.568C180.111 122.669 181.045 123.295 181.918 124.229C184.807 127.301 187.15 133.676 187.15 135.37C187.15 136.337 187.999 139.324 188.949 142.393C190.184 146.371 192.537 149.857 195.483 152.798C195.881 153.208 196.103 153.595 195.994 153.926Z" fill="#FFB9B9"/>
<path opacity="0.1" d="M160.046 109.004C159.617 109.366 159.23 109.774 158.889 110.22C155.633 109.813 153.128 102.662 152.41 100.849C152.349 100.694 152.301 100.579 152.264 100.509C152.228 100.439 152.419 100.232 152.821 99.9796L153.174 99.7667C153.329 99.7516 153.486 99.771 153.633 99.8236C153.78 99.8762 153.913 99.9606 154.023 100.071C154.023 100.071 159.766 105.369 160.207 106.692C160.323 107.018 160.244 107.86 160.046 109.004Z" fill="black"/>
<path d="M173.905 90.3574C173.905 90.3574 152.261 99.1777 152.702 100.069C153.143 100.96 155.794 109.339 159.327 109.78C159.327 109.78 161.537 106.69 164.629 107.131C167.721 107.572 177.88 98.3109 177.88 98.3109L184.946 93.0126L173.905 90.3574Z" fill="#4C4C78"/>
<path opacity="0.05" d="M173.905 90.3574C173.905 90.3574 152.261 99.1777 152.702 100.069C153.143 100.96 155.794 109.339 159.327 109.78C159.327 109.78 161.537 106.69 164.629 107.131C167.721 107.572 177.88 98.3109 177.88 98.3109L184.946 93.0126L173.905 90.3574Z" fill="black"/>
<path opacity="0.1" d="M182.3 125.672C182.3 127.512 177.613 127.862 174.749 127.902L173.023 125.231C173.023 125.231 175.233 122.141 179.208 122.582C180.121 122.683 181.055 123.309 181.928 124.243C182.129 125.122 182.3 125.672 182.3 125.672Z" fill="black"/>
<path d="M172.14 92.5645C172.14 92.5645 166.839 115.071 168.607 119.938C170.375 124.804 172.14 127 172.14 127C172.14 127 181.858 127.441 181.858 124.792C181.858 124.792 179.648 117.73 181.858 113.755C182.283 112.989 182.639 112.187 182.92 111.358C183.957 108.149 185.555 105.149 187.64 102.498C188.714 101.172 189.536 99.6724 189.366 98.3038C188.924 94.7695 172.14 92.5645 172.14 92.5645Z" fill="#4C4C78"/>
<path d="M175.674 73.5801C175.674 73.5801 170.372 78.0085 169.931 81.9624C169.931 81.9624 158.445 87.7017 155.353 84.6116C152.261 81.5214 148.287 86.8288 149.175 87.7078C150.064 88.5868 152.709 90.357 155.801 88.5898H168.166C168.166 88.5898 176.559 87.7078 176.992 81.0865C177.424 74.4651 175.674 73.5801 175.674 73.5801Z" fill="#FFB9B9"/>
<path opacity="0.05" d="M175.674 73.5801C175.674 73.5801 170.372 78.0085 169.931 81.9624C169.931 81.9624 158.445 87.7017 155.353 84.6116C152.261 81.5214 148.287 86.8288 149.175 87.7078C150.064 88.5868 152.709 90.357 155.801 88.5898H168.166C168.166 88.5898 176.559 87.7078 176.992 81.0865C177.424 74.4651 175.674 73.5801 175.674 73.5801Z" fill="black"/>
<path opacity="0.1" d="M180.311 57.9095C180.232 58.1954 180.43 57.6449 180.311 57.9095C179.666 59.3694 179.283 61.6931 177.804 62.3014C176.674 60.7329 175.187 59.4548 173.467 58.5726C173.467 58.5726 177 51.9512 176.559 53.7062C176.331 54.6156 177.782 56.2276 180.311 57.9095Z" fill="black"/>
<path d="M181.194 56.1433C181.194 57.3657 180.832 58.5606 180.152 59.5769C179.473 60.5933 178.507 61.3854 177.377 61.8532C176.247 62.321 175.003 62.4434 173.804 62.2049C172.604 61.9664 171.502 61.3778 170.637 60.5135C169.773 59.6491 169.184 58.5479 168.945 57.3491C168.706 56.1502 168.829 54.9075 169.297 53.7782C169.765 52.6489 170.558 51.6837 171.575 51.0046C172.592 50.3255 173.787 49.963 175.01 49.963C175.824 49.9578 176.63 50.114 177.383 50.4228C178.136 50.7315 178.819 51.1865 179.395 51.7615C179.97 52.3364 180.425 53.0198 180.734 53.772C181.043 54.5242 181.2 55.3303 181.194 56.1433Z" fill="#FFB9B9"/>
<path opacity="0.1" d="M177.883 66.0768L184.067 59.8965C184.067 59.8965 192.892 61.6636 193.343 70.049C193.565 75.2913 192.816 80.5295 191.133 85.4998C191.133 85.4998 189.365 96.5373 189.809 100.069C190.254 103.6 178.324 94.7702 178.324 94.7702C178.324 94.7702 168.607 96.5373 169.048 95.2112C169.489 93.8852 174.791 86.3909 173.917 83.7327C173.537 82.5921 173.646 80.0646 173.896 77.5523C174.31 73.4662 175.679 69.5344 177.892 66.0738L177.883 66.0768Z" fill="black"/>
<path d="M191.574 84.6176C191.574 84.6176 189.809 95.6491 190.26 99.1864C190.71 102.724 178.774 93.8881 178.774 93.8881C178.774 93.8881 177.252 94.1649 175.426 94.4173C172.666 94.8005 169.23 95.129 169.495 94.3291C169.565 94.1415 169.65 93.9595 169.747 93.7847C170.901 91.607 175.155 85.2411 174.355 82.8353C173.975 81.6978 174.084 79.1673 174.334 76.655C174.75 72.5688 176.119 68.6372 178.333 65.1764L184.517 58.9961C184.517 58.9961 193.342 60.7632 193.793 69.1486C194.014 74.3975 193.262 79.6421 191.574 84.6176Z" fill="#CBCDDA"/>
<path opacity="0.1" d="M181.193 56.1428C181.195 56.9983 181.018 57.8447 180.673 58.6277C180.146 58.1949 179.691 57.6816 179.325 57.107C178.797 56.2913 178.222 55.5073 177.602 54.759C177.469 54.5693 177.283 54.4232 177.067 54.3392C176.659 54.2237 176.245 54.5947 176.129 55.0053C176.058 55.4251 176.058 55.8538 176.129 56.2736C176.164 56.4845 176.152 56.7004 176.095 56.9063C176.038 57.1122 175.936 57.3031 175.798 57.4659C175.271 57.9556 174.419 57.6149 173.819 57.2134C173.22 56.812 172.468 56.3649 171.832 56.7025C171.595 56.8515 171.396 57.0522 171.248 57.2895C170.792 58.0091 170.276 58.6887 169.705 59.3212C169.214 58.5045 168.919 57.5855 168.842 56.636C168.766 55.6864 168.91 54.732 169.263 53.8473C169.617 52.9626 170.17 52.1716 170.88 51.536C171.59 50.9003 172.437 50.4373 173.356 50.1831C174.275 49.9289 175.24 49.8903 176.176 50.0705C177.112 50.2506 177.993 50.6446 178.752 51.2216C179.51 51.7986 180.125 52.543 180.548 53.3967C180.971 54.2503 181.191 55.1902 181.19 56.1428H181.193Z" fill="black"/>
<path d="M183.356 52.3931C183.42 51.834 183.395 51.2681 183.28 50.7172C183.139 50.2479 182.91 49.8094 182.607 49.4246C181.928 48.521 181.057 47.7784 180.058 47.2495C179.058 46.7206 177.954 46.4186 176.825 46.3648C176.091 46.3374 175.361 46.4135 174.627 46.4135C173.279 46.4135 171.931 46.1519 170.586 46.2644C169.241 46.377 167.822 46.9731 167.238 48.1836C166.867 48.944 166.864 49.8564 166.422 50.5773C165.914 51.4076 164.922 51.8304 164.353 52.6212C164.042 53.0547 163.873 53.5747 163.872 54.1085C163.864 54.2817 163.9 54.4543 163.976 54.6103C164.111 54.7979 164.278 54.9606 164.469 55.0909C164.795 55.3908 165.011 55.7927 165.079 56.2309C165.148 56.669 165.066 57.1174 164.846 57.5028C165.304 57.5884 165.726 57.8073 166.059 58.132C166.393 58.4567 166.623 58.8727 166.721 59.3277C166.73 59.4803 166.785 59.6267 166.879 59.7474C166.966 59.8183 167.072 59.8617 167.183 59.8721C168.069 60.0272 168.97 59.5892 169.618 58.9748C170.266 58.3605 170.741 57.5758 171.261 56.8458C171.407 56.6078 171.606 56.4069 171.843 56.2588C172.479 55.9212 173.227 56.3744 173.827 56.7728C174.426 57.1712 175.282 57.5119 175.808 57.0192C175.947 56.8571 176.048 56.6667 176.106 56.4612C176.163 56.2558 176.175 56.0403 176.14 55.8299C176.068 55.4102 176.068 54.9814 176.14 54.5616C176.256 54.151 176.666 53.78 177.077 53.8956C177.292 53.9803 177.477 54.1276 177.607 54.3183C178.228 55.0663 178.804 55.8503 179.332 56.6663C179.905 57.5514 181.615 59.647 182.449 57.9103C183.21 56.3166 183.261 54.1237 183.356 52.3931Z" fill="#B96B6B"/>
<path opacity="0.1" d="M174.131 82.6311C174.131 82.6311 180.756 82.1901 182.524 83.5131C184.293 84.8362 191.35 84.3952 191.35 84.3952" fill="black"/>
<path opacity="0.05" d="M188.925 80.2041C188.925 80.2041 186.715 84.6173 186.715 85.9434C186.715 87.2695 184.947 89.0335 184.947 89.0335C184.947 89.0335 179.956 91.7709 175.419 94.42C172.658 94.8032 169.222 95.1317 169.487 94.3318C169.557 94.1442 169.642 93.9622 169.74 93.7874C174.448 90.9223 180.973 82.838 180.973 82.838C180.973 78.8658 183.182 71.8004 183.182 71.8004C183.182 71.8004 188.484 69.1513 190.249 71.8004C192.014 74.4496 188.925 80.2041 188.925 80.2041Z" fill="black"/>
<path opacity="0.1" d="M70.6562 101.662L76.5208 125.437C76.5208 125.437 178.853 181.784 240.447 174.618L258.372 129.346C258.372 129.346 214.195 147.193 167.316 138.987C165.519 138.669 163.743 138.246 161.996 137.719C147.988 133.528 80.0023 112.754 70.6562 101.662Z" fill="black"/>
<path d="M70.6562 102.312L76.5208 126.088C76.5208 126.088 178.85 182.431 240.444 175.269L258.369 129.996C258.369 129.996 214.192 147.844 167.313 139.638C165.516 139.319 163.74 138.896 161.993 138.369C147.988 134.178 80.0023 113.405 70.6562 102.312Z" fill="#735498"/>
<path d="M106.108 45.4314L104.637 47.1758L169.485 101.789L170.956 100.044L106.108 45.4314Z" fill="#535461"/>
<path d="M182.3 70.9342C182.3 70.9342 180.09 78.0087 180.09 81.9626C180.09 81.9626 170.814 93.4412 166.395 93.8822C161.976 94.3232 159.329 96.9724 161.094 97.8544C162.859 98.7364 165.068 100.063 167.719 97.8544C170.37 95.6463 184.062 88.1429 184.062 88.1429C184.062 88.1429 185.83 86.3758 185.83 85.0528C185.83 83.7297 188.04 79.3135 188.04 79.3135C188.04 79.3135 191.132 73.5742 189.363 70.925C187.595 68.2759 182.3 70.9342 182.3 70.9342Z" fill="#FFB9B9"/>
<path opacity="0.1" d="M187.601 63.8692C187.601 63.8692 179.649 62.9871 180.976 74.4627C180.976 74.4627 186.277 71.3725 190.693 74.4627C190.693 74.4657 192.458 66.0773 187.601 63.8692Z" fill="black"/>
<path d="M187.601 62.9864C187.601 62.9864 179.649 62.1043 180.976 73.5799C180.976 73.5799 186.277 70.4897 190.693 73.5799C190.693 73.5799 192.458 65.1945 187.601 62.9864Z" fill="#CBCDDA"/>
<path d="M107.321 48.3203L104.713 179.177" stroke="#535461" stroke-width="2" stroke-miterlimit="10"/>
<path opacity="0.15" d="M98.1956 169.73C98.1956 169.73 88.4204 175.591 94.6106 188.621" stroke="#6C63FF" stroke-miterlimit="10"/>
<path opacity="0.15" d="M102.758 172.012C102.758 172.012 92.9829 177.873 99.1731 190.902" stroke="#6C63FF" stroke-miterlimit="10"/>
<path opacity="0.15" d="M107.971 169.73C107.971 169.73 117.746 175.591 111.556 188.621" stroke="#6C63FF" stroke-miterlimit="10"/>
<path opacity="0.15" d="M104.387 172.988C104.387 172.988 114.162 178.849 107.972 191.879" stroke="#6C63FF" stroke-miterlimit="10"/>
<path opacity="0.1" d="M65.3523 17.7873H63.1093C63.5258 17.7873 63.9252 17.6219 64.2197 17.3276C64.5142 17.0333 64.6797 16.6341 64.6797 16.2178C64.6797 15.8016 64.5142 15.4024 64.2197 15.1081C63.9252 14.8138 63.5258 14.6484 63.1093 14.6484H44.9467C44.7404 14.6484 44.5362 14.689 44.3457 14.7679C44.1552 14.8468 43.9821 14.9624 43.8362 15.1081C43.6904 15.2538 43.5748 15.4269 43.4958 15.6173C43.4169 15.8077 43.3763 16.0117 43.3763 16.2178C43.3763 16.4239 43.4169 16.628 43.4958 16.8184C43.5748 17.0088 43.6904 17.1819 43.8362 17.3276C43.9821 17.4733 44.1552 17.5889 44.3457 17.6678C44.5362 17.7467 44.7404 17.7873 44.9467 17.7873H47.1896C46.7731 17.7873 46.3737 17.9526 46.0792 18.2469C45.7847 18.5412 45.6192 18.9404 45.6192 19.3567C45.6192 19.7729 45.7847 20.1721 46.0792 20.4664C46.3737 20.7607 46.7731 20.9261 47.1896 20.9261H44.0489C43.6324 20.9261 43.233 21.0914 42.9385 21.3857C42.644 21.6801 42.4785 22.0793 42.4785 22.4955C42.4785 22.9117 42.644 23.3109 42.9385 23.6052C43.233 23.8996 43.6324 24.0649 44.0489 24.0649H62.2115C62.628 24.0649 63.0274 23.8996 63.3219 23.6052C63.6164 23.3109 63.7819 22.9117 63.7819 22.4955C63.7819 22.0793 63.6164 21.6801 63.3219 21.3857C63.0274 21.0914 62.628 20.9261 62.2115 20.9261H65.3523C65.7687 20.9261 66.1682 20.7607 66.4627 20.4664C66.7572 20.1721 66.9226 19.7729 66.9226 19.3567C66.9226 18.9404 66.7572 18.5412 66.4627 18.2469C66.1682 17.9526 65.7687 17.7873 65.3523 17.7873Z" fill="#735498"/>
<path opacity="0.1" d="M189.515 3.13882H187.272C187.689 3.13882 188.088 2.97347 188.383 2.67915C188.677 2.38483 188.843 1.98564 188.843 1.56941C188.843 1.15318 188.677 0.753991 188.383 0.45967C188.088 0.165348 187.689 0 187.272 0H169.11C168.693 0 168.294 0.165348 167.999 0.45967C167.705 0.753991 167.539 1.15318 167.539 1.56941C167.539 1.98564 167.705 2.38483 167.999 2.67915C168.294 2.97347 168.693 3.13882 169.11 3.13882H171.353C171.146 3.13882 170.942 3.17941 170.752 3.25828C170.561 3.33715 170.388 3.45276 170.242 3.59849C170.096 3.74422 169.981 3.91723 169.902 4.10764C169.823 4.29805 169.782 4.50213 169.782 4.70823C169.782 4.91433 169.823 5.11841 169.902 5.30882C169.981 5.49923 170.096 5.67224 170.242 5.81797C170.388 5.9637 170.561 6.07931 170.752 6.15818C170.942 6.23705 171.146 6.27764 171.353 6.27764H168.215C168.009 6.27764 167.804 6.31823 167.614 6.3971C167.423 6.47597 167.25 6.59157 167.104 6.73731C166.959 6.88304 166.843 7.05605 166.764 7.24646C166.685 7.43687 166.645 7.64095 166.645 7.84705C166.645 8.05315 166.685 8.25723 166.764 8.44764C166.843 8.63805 166.959 8.81106 167.104 8.95679C167.25 9.10252 167.423 9.21813 167.614 9.297C167.804 9.37587 168.009 9.41646 168.215 9.41646H186.378C186.794 9.41646 187.193 9.25111 187.488 8.95679C187.782 8.66247 187.948 8.26328 187.948 7.84705C187.948 7.43082 187.782 7.03163 187.488 6.73731C187.193 6.44299 186.794 6.27764 186.378 6.27764H189.518C189.935 6.27764 190.334 6.11229 190.629 5.81797C190.923 5.52365 191.089 5.12446 191.089 4.70823C191.089 4.292 190.923 3.89281 190.629 3.59849C190.334 3.30417 189.935 3.13882 189.518 3.13882H189.515Z" fill="#735498"/>
<path opacity="0.1" d="M254.694 27.2404H252.451C252.657 27.2404 252.862 27.1998 253.052 27.1209C253.243 27.0421 253.416 26.9264 253.562 26.7807C253.707 26.635 253.823 26.462 253.902 26.2716C253.981 26.0812 254.021 25.8771 254.021 25.671C254.021 25.4649 253.981 25.2608 253.902 25.0704C253.823 24.88 253.707 24.707 253.562 24.5612C253.416 24.4155 253.243 24.2999 253.052 24.221C252.862 24.1422 252.657 24.1016 252.451 24.1016H234.288C234.082 24.1016 233.878 24.1422 233.688 24.221C233.497 24.2999 233.324 24.4155 233.178 24.5612C233.032 24.707 232.917 24.88 232.838 25.0704C232.759 25.2608 232.718 25.4649 232.718 25.671C232.718 25.8771 232.759 26.0812 232.838 26.2716C232.917 26.462 233.032 26.635 233.178 26.7807C233.324 26.9264 233.497 27.0421 233.688 27.1209C233.878 27.1998 234.082 27.2404 234.288 27.2404H236.519C236.103 27.2404 235.703 27.4057 235.409 27.7001C235.114 27.9944 234.949 28.3936 234.949 28.8098C234.949 29.226 235.114 29.6252 235.409 29.9195C235.703 30.2139 236.103 30.3792 236.519 30.3792H233.391C232.974 30.3792 232.575 30.5446 232.28 30.8389C231.986 31.1332 231.82 31.5324 231.82 31.9486C231.82 32.3648 231.986 32.764 232.28 33.0584C232.575 33.3527 232.974 33.518 233.391 33.518H251.553C251.97 33.518 252.369 33.3527 252.664 33.0584C252.958 32.764 253.124 32.3648 253.124 31.9486C253.124 31.5324 252.958 31.1332 252.664 30.8389C252.369 30.5446 251.97 30.3792 251.553 30.3792H254.694C255.111 30.3792 255.51 30.2139 255.804 29.9195C256.099 29.6252 256.264 29.226 256.264 28.8098C256.264 28.3936 256.099 27.9944 255.804 27.7001C255.51 27.4057 255.111 27.2404 254.694 27.2404Z" fill="#735498"/>
</g>
<defs>
<linearGradient id="paint0_linear_3023_2975" x1="164.597" y1="177.429" x2="164.597" y2="94.1074" gradientUnits="userSpaceOnUse">
<stop stop-color="#808080" stop-opacity="0.25"/>
<stop offset="0.54" stop-color="#808080" stop-opacity="0.12"/>
<stop offset="1" stop-color="#808080" stop-opacity="0.1"/>
</linearGradient>
<linearGradient id="paint1_linear_3023_2975" x1="169.159" y1="156.449" x2="169.159" y2="45.4647" gradientUnits="userSpaceOnUse">
<stop stop-color="#808080" stop-opacity="0.25"/>
<stop offset="0.54" stop-color="#808080" stop-opacity="0.12"/>
<stop offset="1" stop-color="#808080" stop-opacity="0.1"/>
</linearGradient>
<clipPath id="clip0_3023_2975">
<rect width="324" height="243" fill="white"/>
</clipPath>
</defs>
</svg>
